<?xml version="1.0" encoding="utf-8"?>
<?xml-stylesheet type="text/xsl" href="rss1.xsl"?>
<rss version="2.0" xmlns:atom="http://www.w3.org/2005/Atom" xmlns:content="http://purl.org/rss/1.0/modules/content/" xmlns:dc="http://purl.org/dc/elements/1.1/" xmlns:media="http://search.yahoo.com/mrss/">
<channel>
 <title>Getty</title>
 <link>http://www.gettyimg.com/</link>
 <atom:link href="http://www.gettyimg.com/" rel="self" type="application/rss+xml" />

 
                <item>
                <title><![CDATA[【Cinema Center】SERIES - Bratz.S02.720p.KDLE.WEB-DL.AAC2.0.x264-Samuel]]></title>
                <link><![CDATA[https://sharemania.us/threads/bratz-s02-720p-kdle-web-dl-aac2-0-x264-samuel.234730/]]></link>
                <description><![CDATA[<article>
<blockquote class="messageText SelectQuoteContainer ugc baseHtml">
<div style="text-align: center"><b><span style="font-size: 26px">Bratz</span><br>
<span style="font-size: 22px">Season 2</span></b><br>
<img src="https://i.imgur.com/v3i6qlM.jpg" class="bbCodeImage LbImage" alt="[​IMG]" data-url="https://i.imgur.com/v3i6qlM.jpg" style=""><br>
<b><a href="https://i.imgur.com/Xm7IMsz.jpg" target="_blank" class="externalLink" rel="nofollow">Poster</a></b> | <b><a href="https://i.imgur.com/IC7hh0J.png" target="_blank" class="externalLink" rel="nofollow">Logo</a></b> | <b><a href="https://i.imgur.com/tJ2ejZq.jpg" target="_blank" class="externalLink" rel="nofollow">Thumbnail</a></b><br>
<br>
Kids &amp; Family • 2008 • 2 Seasons • TV-Y7<br>
<b>Voices of:</b> Britt McKillip, Britt Irvin, Dorla Bell, Maryke Hendrikse, Ellie Harvie, Kelly Sheridan, Ashleigh Ball<br>
<br>
<div class="bbCodeBlock bbCodeQuote">
<aside>
<blockquote class="quoteContainer"><div class="quote"><b><span style="font-size: 15px"><span style="font-family: 'Arial'">Description</span></span></b><br>
Set in the fictional city of Stilesville, the show revolves around four adolescents (Cloe, Jade, Sasha, Yasmin) running their own teen magazine, titled "Bratz", while juggling school life at Stiles High School.</div><div class="quoteExpand">Click to expand...</div></blockquote>
</aside>
</div>
<div class="bbCodeBlock bbCodeQuote">
<aside>
<blockquote class="quoteContainer"><div class="quote"><span style="font-family: 'Arial'"><span style="font-size: 15px"><b>Trailers</b></span></span><br>
<span data-s9e-mediaembed="googledrive" style="display:inline-block;width:100%;max-width:640px"><span style="display:block;overflow:hidden;position:relative;padding-bottom:75%"><iframe allowfullscreen="" loading="lazy" scrolling="no" src="//drive.google.com/file/d/1Dcv7nkl_NXenhayBBiYmzl9q8YYWprAP/preview" style="border:0;height:100%;left:0;position:absolute;width:100%"></iframe></span></span></div><div class="quoteExpand quoteCut">Click to expand...</div></blockquote>
</aside>
</div>
<div class="bbCodeBlock bbCodeQuote">
<aside>
<blockquote class="quoteContainer"><div class="quote"><span style="font-family: 'Arial'"><span style="font-size: 15px"><b>Accessibility</b></span></span><br>
<b>Audio languages:</b> English<br>
<b>Subtitles:</b> English (CC)</div><div class="quoteExpand">Click to expand...</div></blockquote>
</aside>
</div>
<div class="bbCodeBlock bbCodeQuote">
<aside>
<blockquote class="quoteContainer"><div class="quote"><b><span style="font-size: 15px"><span style="font-family: 'Arial'">Source</span></span></b><br>
<img src="https://i.imgur.com/xo0xvt2.png" class="bbCodeImage LbImage" alt="[​IMG]" data-url="https://i.imgur.com/xo0xvt2.png" style=""></div><div class="quoteExpand">Click to expand...</div></blockquote>
</aside>
</div>
<div class="bbCodeBlock bbCodeQuote">
<aside>
<blockquote class="quoteContainer"><div class="quote"><b><span style="font-size: 15px">Release Name</span></b><br>
Bratz.S02.720p.KDLE.WEB-DL.AAC2.0.x264-Samuel</div><div class="quoteExpand">Click to expand...</div></blockquote>
</aside>
</div>
<div class="ToggleTriggerAnchor bbCodeSpoilerContainer">
<button type="button" class="button bbCodeSpoilerButton ToggleTrigger Tooltip JsOnly" data-target="> .SpoilerTarget"><span>Spoiler: <span class="SpoilerTitle">Media Information</span></span></button>
<div class="SpoilerTarget bbCodeSpoilerText"><b><span style="text-decoration: underline">Episode 1: Extremely Madeover</span></b><br>
General<br>
Complete name : Bratz.S02E01.Extremely.Madeover.720p.KDLE.WEB-DL.AAC2.0.x264-Samuel.mkv<br>
Format : Matroska<br>
Format version : Version 4<br>
File size : 285 MiB<br>
Duration : 21 min 7 s<br>
Overall bit rate : 1 889 kb/s<br>
Frame rate : 24.000 FPS<br>
Encoded date : 2023-05-01 16:34:49 UTC<br>
Writing application : mkvmerge v76.0 ('Celebration') 64-bit<br>
Writing library : libebml v1.4.4 + libmatroska v1.7.1 / Lavf58.32.104<br>
<br>
Video<br>
ID : 1<br>
Format : AVC<br>
Format/Info : Advanced Video Codec<br>
Format profile : High@L4.1<br>
Format settings : CABAC / 2 Ref Frames<br>
Format settings, CABAC : Yes<br>
Format settings, Reference frames : 2 frames<br>
Codec ID : V_MPEG4/ISO/AVC<br>
Duration : 21 min 7 s<br>
Bit rate : 1 691 kb/s<br>
Width : 1 280 pixels<br>
Height : 720 pixels<br>
Display aspect ratio : 16:9<br>
Frame rate mode : Constant<br>
Frame rate : 24.000 FPS<br>
Color space : YUV<br>
Chroma subsampling : 4:2:0<br>
Bit depth : 8 bits<br>
Scan type : Progressive<br>
Bits/(Pixel*Frame) : 0.076<br>
Stream size : 256 MiB (90%)<br>
Writing library : x264 core 155 r2917 0a84d98<br>
Encoding settings : cabac=1 / ref=1 / deblock=1:0:0 / analyse=0x3:0x133 / me=umh / subme=10 / psy=0 / mixed_ref=0 / me_range=24 / chroma_me=1 / trellis=2 / 8x8dct=1 / cqm=0 / deadzone=21,11 / fast_pskip=1 / chroma_qp_offset=0 / threads=22 / lookahead_threads=1 / sliced_threads=0 / nr=0 / decimate=1 / interlaced=0 / bluray_compat=0 / constrained_intra=0 / bframes=3 / b_pyramid=0 / b_adapt=1 / b_bias=0 / direct=3 / weightb=1 / open_gop=0 / weightp=2 / keyint=24 / keyint_min=2 / scenecut=40 / intra_refresh=0 / rc_lookahead=25 / rc=crf / mbtree=1 / crf=1.0 / qcomp=0.60 / qpmin=0 / qpmax=69 / qpstep=4 / vbv_maxrate=1800 / vbv_bufsize=1900 / crf_max=0.0 / nal_hrd=none / filler=0 / ip_ratio=1.40 / aq=2:1.00<br>
Default : Yes<br>
Forced : No<br>
<br>
Audio<br>
ID : 2<br>
Format : AAC LC<br>
Format/Info : Advanced Audio Codec Low Complexity<br>
Codec ID : A_AAC-2<br>
Duration : 21 min 7 s<br>
Bit rate : 192 kb/s<br>
Channel(s) : 2 channels<br>
Channel layout : L R<br>
Sampling rate : 44.1 kHz<br>
Frame rate : 43.066 FPS (1024 SPF)<br>
Compression mode : Lossy<br>
Delay relative to video : -23 ms<br>
Stream size : 29.4 MiB (10%)<br>
Language : English<br>
Default : Yes<br>
Forced : No<br>
<br>
Text<br>
ID : 3<br>
Format : UTF-8<br>
Codec ID : S_TEXT/UTF8<br>
Codec ID/Info : UTF-8 Plain Text<br>
Duration : 20 min 46 s<br>
Bit rate : 91 b/s<br>
Frame rate : 0.382 FPS<br>
Count of elements : 476<br>
Stream size : 13.9 KiB (0%)<br>
Language : English<br>
Default : No<br>
Forced : No<br>
<br>
<b><span style="text-decoration: underline">Episode 2: The Cloe Life</span></b><br>
General<br>
Complete name : Bratz.S02E02.The.Cloe.Life.720p.KDLE.WEB-DL.AAC2.0.x264-Samuel.mkv<br>
Format : Matroska<br>
Format version : Version 4<br>
File size : 294 MiB<br>
Duration : 21 min 7 s<br>
Overall bit rate : 1 943 kb/s<br>
Frame rate : 24.000 FPS<br>
Encoded date : 2023-05-01 17:54:29 UTC<br>
Writing application : mkvmerge v76.0 ('Celebration') 64-bit<br>
Writing library : libebml v1.4.4 + libmatroska v1.7.1 / Lavf58.32.104<br>
<br>
Video<br>
ID : 1<br>
Format : AVC<br>
Format/Info : Advanced Video Codec<br>
Format profile : High@L4.1<br>
Format settings : CABAC / 2 Ref Frames<br>
Format settings, CABAC : Yes<br>
Format settings, Reference frames : 2 frames<br>
Codec ID : V_MPEG4/ISO/AVC<br>
Duration : 21 min 7 s<br>
Bit rate : 1 747 kb/s<br>
Width : 1 280 pixels<br>
Height : 720 pixels<br>
Display aspect ratio : 16:9<br>
Frame rate mode : Constant<br>
Frame rate : 24.000 FPS<br>
Color space : YUV<br>
Chroma subsampling : 4:2:0<br>
Bit depth : 8 bits<br>
Scan type : Progressive<br>
Bits/(Pixel*Frame) : 0.079<br>
Stream size : 264 MiB (90%)<br>
Writing library : x264 core 155 r2917 0a84d98<br>
Encoding settings : cabac=1 / ref=1 / deblock=1:0:0 / analyse=0x3:0x133 / me=umh / subme=10 / psy=0 / mixed_ref=0 / me_range=24 / chroma_me=1 / trellis=2 / 8x8dct=1 / cqm=0 / deadzone=21,11 / fast_pskip=1 / chroma_qp_offset=0 / threads=22 / lookahead_threads=1 / sliced_threads=0 / nr=0 / decimate=1 / interlaced=0 / bluray_compat=0 / constrained_intra=0 / bframes=3 / b_pyramid=0 / b_adapt=1 / b_bias=0 / direct=3 / weightb=1 / open_gop=0 / weightp=2 / keyint=24 / keyint_min=2 / scenecut=40 / intra_refresh=0 / rc_lookahead=25 / rc=crf / mbtree=1 / crf=1.0 / qcomp=0.60 / qpmin=0 / qpmax=69 / qpstep=4 / vbv_maxrate=1800 / vbv_bufsize=1900 / crf_max=0.0 / nal_hrd=none / filler=0 / ip_ratio=1.40 / aq=2:1.00<br>
Default : Yes<br>
Forced : No<br>
<br>
Audio<br>
ID : 2<br>
Format : AAC LC<br>
Format/Info : Advanced Audio Codec Low Complexity<br>
Codec ID : A_AAC-2<br>
Duration : 21 min 7 s<br>
Bit rate : 192 kb/s<br>
Channel(s) : 2 channels<br>
Channel layout : L R<br>
Sampling rate : 44.1 kHz<br>
Frame rate : 43.066 FPS (1024 SPF)<br>
Compression mode : Lossy<br>
Delay relative to video : -23 ms<br>
Stream size : 29.3 MiB (10%)<br>
Language : English<br>
Default : Yes<br>
Forced : No<br>
<br>
Text<br>
ID : 3<br>
Format : UTF-8<br>
Codec ID : S_TEXT/UTF8<br>
Codec ID/Info : UTF-8 Plain Text<br>
Duration : 20 min 37 s<br>
Bit rate : 102 b/s<br>
Frame rate : 0.408 FPS<br>
Count of elements : 505<br>
Stream size : 15.5 KiB (0%)<br>
Language : English<br>
Default : No<br>
Forced : No<br>
<br>
<b><span style="text-decoration: underline">Episode 3: The Bratz 500</span></b><br>
General<br>
Complete name : Bratz.S02E03.The.Bratz.500.720p.KDLE.WEB-DL.AAC2.0.x264-Samuel.mkv<br>
Format : Matroska<br>
Format version : Version 4<br>
File size : 285 MiB<br>
Duration : 21 min 7 s<br>
Overall bit rate : 1 883 kb/s<br>
Frame rate : 24.000 FPS<br>
Encoded date : 2023-05-04 08:59:12 UTC<br>
Writing application : mkvmerge v76.0 ('Celebration') 64-bit<br>
Writing library : libebml v1.4.4 + libmatroska v1.7.1 / Lavf58.32.104<br>
<br>
Video<br>
ID : 1<br>
Format : AVC<br>
Format/Info : Advanced Video Codec<br>
Format profile : High@L4.1<br>
Format settings : CABAC / 2 Ref Frames<br>
Format settings, CABAC : Yes<br>
Format settings, Reference frames : 2 frames<br>
Codec ID : V_MPEG4/ISO/AVC<br>
Duration : 21 min 7 s<br>
Bit rate : 1 687 kb/s<br>
Width : 1 280 pixels<br>
Height : 720 pixels<br>
Display aspect ratio : 16:9<br>
Frame rate mode : Constant<br>
Frame rate : 24.000 FPS<br>
Color space : YUV<br>
Chroma subsampling : 4:2:0<br>
Bit depth : 8 bits<br>
Scan type : Progressive<br>
Bits/(Pixel*Frame) : 0.076<br>
Stream size : 255 MiB (90%)<br>
Writing library : x264 core 155 r2917 0a84d98<br>
Encoding settings : cabac=1 / ref=1 / deblock=1:0:0 / analyse=0x3:0x133 / me=umh / subme=10 / psy=0 / mixed_ref=0 / me_range=24 / chroma_me=1 / trellis=2 / 8x8dct=1 / cqm=0 / deadzone=21,11 / fast_pskip=1 / chroma_qp_offset=0 / threads=22 / lookahead_threads=1 / sliced_threads=0 / nr=0 / decimate=1 / interlaced=0 / bluray_compat=0 / constrained_intra=0 / bframes=3 / b_pyramid=0 / b_adapt=1 / b_bias=0 / direct=3 / weightb=1 / open_gop=0 / weightp=2 / keyint=24 / keyint_min=2 / scenecut=40 / intra_refresh=0 / rc_lookahead=25 / rc=crf / mbtree=1 / crf=1.0 / qcomp=0.60 / qpmin=0 / qpmax=69 / qpstep=4 / vbv_maxrate=1800 / vbv_bufsize=1900 / crf_max=0.0 / nal_hrd=none / filler=0 / ip_ratio=1.40 / aq=2:1.00<br>
Default : Yes<br>
Forced : No<br>
<br>
Audio<br>
ID : 2<br>
Format : AAC LC<br>
Format/Info : Advanced Audio Codec Low Complexity<br>
Codec ID : A_AAC-2<br>
Duration : 21 min 7 s<br>
Bit rate : 192 kb/s<br>
Channel(s) : 2 channels<br>
Channel layout : L R<br>
Sampling rate : 44.1 kHz<br>
Frame rate : 43.066 FPS (1024 SPF)<br>
Compression mode : Lossy<br>
Delay relative to video : -23 ms<br>
Stream size : 29.2 MiB (10%)<br>
Language : English<br>
Default : Yes<br>
Forced : No<br>
<br>
Text<br>
ID : 3<br>
Format : UTF-8<br>
Codec ID : S_TEXT/UTF8<br>
Codec ID/Info : UTF-8 Plain Text<br>
Duration : 20 min 48 s<br>
Bit rate : 91 b/s<br>
Frame rate : 0.360 FPS<br>
Count of elements : 450<br>
Stream size : 14.0 KiB (0%)<br>
Language : English<br>
Default : No<br>
Forced : No<br>
<br>
<b><span style="text-decoration: underline">Episode 4: A Little Dis, A Little Dat</span></b><br>
General<br>
Complete name : Bratz.S02E04.A.Little.Dis.A.Little.Dat.720p.KDLE.WEB-DL.AAC2.0.x264-Samuel.mkv<br>
Format : Matroska<br>
Format version : Version 4<br>
File size : 289 MiB<br>
Duration : 21 min 7 s<br>
Overall bit rate : 1 913 kb/s<br>
Frame rate : 24.000 FPS<br>
Encoded date : 2023-05-04 09:20:48 UTC<br>
Writing application : mkvmerge v76.0 ('Celebration') 64-bit<br>
Writing library : libebml v1.4.4 + libmatroska v1.7.1 / Lavf58.32.104<br>
<br>
Video<br>
ID : 1<br>
Format : AVC<br>
Format/Info : Advanced Video Codec<br>
Format profile : High@L4.1<br>
Format settings : CABAC / 2 Ref Frames<br>
Format settings, CABAC : Yes<br>
Format settings, Reference frames : 2 frames<br>
Codec ID : V_MPEG4/ISO/AVC<br>
Duration : 21 min 7 s<br>
Bit rate : 1 716 kb/s<br>
Width : 1 280 pixels<br>
Height : 720 pixels<br>
Display aspect ratio : 16:9<br>
Frame rate mode : Constant<br>
Frame rate : 24.000 FPS<br>
Color space : YUV<br>
Chroma subsampling : 4:2:0<br>
Bit depth : 8 bits<br>
Scan type : Progressive<br>
Bits/(Pixel*Frame) : 0.078<br>
Stream size : 259 MiB (90%)<br>
Writing library : x264 core 155 r2917 0a84d98<br>
Encoding settings : cabac=1 / ref=1 / deblock=1:0:0 / analyse=0x3:0x133 / me=umh / subme=10 / psy=0 / mixed_ref=0 / me_range=24 / chroma_me=1 / trellis=2 / 8x8dct=1 / cqm=0 / deadzone=21,11 / fast_pskip=1 / chroma_qp_offset=0 / threads=22 / lookahead_threads=1 / sliced_threads=0 / nr=0 / decimate=1 / interlaced=0 / bluray_compat=0 / constrained_intra=0 / bframes=3 / b_pyramid=0 / b_adapt=1 / b_bias=0 / direct=3 / weightb=1 / open_gop=0 / weightp=2 / keyint=24 / keyint_min=2 / scenecut=40 / intra_refresh=0 / rc_lookahead=25 / rc=crf / mbtree=1 / crf=1.0 / qcomp=0.60 / qpmin=0 / qpmax=69 / qpstep=4 / vbv_maxrate=1800 / vbv_bufsize=1900 / crf_max=0.0 / nal_hrd=none / filler=0 / ip_ratio=1.40 / aq=2:1.00<br>
Default : Yes<br>
Forced : No<br>
<br>
Audio<br>
ID : 2<br>
Format : AAC LC<br>
Format/Info : Advanced Audio Codec Low Complexity<br>
Codec ID : A_AAC-2<br>
Duration : 21 min 7 s<br>
Bit rate : 192 kb/s<br>
Channel(s) : 2 channels<br>
Channel layout : L R<br>
Sampling rate : 44.1 kHz<br>
Frame rate : 43.066 FPS (1024 SPF)<br>
Compression mode : Lossy<br>
Delay relative to video : -23 ms<br>
Stream size : 29.4 MiB (10%)<br>
Language : English<br>
Default : Yes<br>
Forced : No<br>
<br>
Text<br>
ID : 3<br>
Format : UTF-8<br>
Codec ID : S_TEXT/UTF8<br>
Codec ID/Info : UTF-8 Plain Text<br>
Duration : 20 min 46 s<br>
Bit rate : 90 b/s<br>
Frame rate : 0.370 FPS<br>
Count of elements : 461<br>
Stream size : 13.8 KiB (0%)<br>
Language : English<br>
Default : No<br>
Forced : No<br>
<br>
<b><span style="text-decoration: underline">Episode 5: Miss Fortune</span></b><br>
General<br>
Complete name : Bratz.S02E05.Miss.Fortune.720p.KDLE.WEB-DL.AAC2.0.x264-Samuel.mkv<br>
Format : Matroska<br>
Format version : Version 4<br>
File size : 299 MiB<br>
Duration : 22 min 2 s<br>
Overall bit rate : 1 899 kb/s<br>
Frame rate : 24.000 FPS<br>
Encoded date : 2023-05-04 09:29:03 UTC<br>
Writing application : mkvmerge v76.0 ('Celebration') 64-bit<br>
Writing library : libebml v1.4.4 + libmatroska v1.7.1 / Lavf58.32.104<br>
<br>
Video<br>
ID : 1<br>
Format : AVC<br>
Format/Info : Advanced Video Codec<br>
Format profile : High@L4.1<br>
Format settings : CABAC / 2 Ref Frames<br>
Format settings, CABAC : Yes<br>
Format settings, Reference frames : 2 frames<br>
Codec ID : V_MPEG4/ISO/AVC<br>
Duration : 22 min 2 s<br>
Bit rate : 1 703 kb/s<br>
Width : 1 280 pixels<br>
Height : 720 pixels<br>
Display aspect ratio : 16:9<br>
Frame rate mode : Constant<br>
Frame rate : 24.000 FPS<br>
Color space : YUV<br>
Chroma subsampling : 4:2:0<br>
Bit depth : 8 bits<br>
Scan type : Progressive<br>
Bits/(Pixel*Frame) : 0.077<br>
Stream size : 268 MiB (90%)<br>
Writing library : x264 core 155 r2917 0a84d98<br>
Encoding settings : cabac=1 / ref=1 / deblock=1:0:0 / analyse=0x3:0x133 / me=umh / subme=10 / psy=0 / mixed_ref=0 / me_range=24 / chroma_me=1 / trellis=2 / 8x8dct=1 / cqm=0 / deadzone=21,11 / fast_pskip=1 / chroma_qp_offset=0 / threads=22 / lookahead_threads=1 / sliced_threads=0 / nr=0 / decimate=1 / interlaced=0 / bluray_compat=0 / constrained_intra=0 / bframes=3 / b_pyramid=0 / b_adapt=1 / b_bias=0 / direct=3 / weightb=1 / open_gop=0 / weightp=2 / keyint=24 / keyint_min=2 / scenecut=40 / intra_refresh=0 / rc_lookahead=25 / rc=crf / mbtree=1 / crf=1.0 / qcomp=0.60 / qpmin=0 / qpmax=69 / qpstep=4 / vbv_maxrate=1800 / vbv_bufsize=1900 / crf_max=0.0 / nal_hrd=none / filler=0 / ip_ratio=1.40 / aq=2:1.00<br>
Default : Yes<br>
Forced : No<br>
<br>
Audio<br>
ID : 2<br>
Format : AAC LC<br>
Format/Info : Advanced Audio Codec Low Complexity<br>
Codec ID : A_AAC-2<br>
Duration : 22 min 2 s<br>
Bit rate : 192 kb/s<br>
Channel(s) : 2 channels<br>
Channel layout : L R<br>
Sampling rate : 44.1 kHz<br>
Frame rate : 43.066 FPS (1024 SPF)<br>
Compression mode : Lossy<br>
Delay relative to video : -23 ms<br>
Stream size : 30.5 MiB (10%)<br>
Language : English<br>
Default : Yes<br>
Forced : No<br>
<br>
Text<br>
ID : 3<br>
Format : UTF-8<br>
Codec ID : S_TEXT/UTF8<br>
Codec ID/Info : UTF-8 Plain Text<br>
Duration : 21 min 42 s<br>
Bit rate : 78 b/s<br>
Frame rate : 0.324 FPS<br>
Count of elements : 422<br>
Stream size : 12.5 KiB (0%)<br>
Language : English<br>
Default : No<br>
Forced : No<br>
<br>
<b><span style="text-decoration: underline">Episode 6: Bratz Fail</span></b><br>
General<br>
Complete name : Bratz.S02E06.Bratz.Fail.720p.KDLE.WEB-DL.AAC2.0.x264-Samuel.mkv<br>
Format : Matroska<br>
Format version : Version 4<br>
File size : 282 MiB<br>
Duration : 21 min 4 s<br>
Overall bit rate : 1 869 kb/s<br>
Frame rate : 24.000 FPS<br>
Encoded date : 2023-05-04 09:37:27 UTC<br>
Writing application : mkvmerge v76.0 ('Celebration') 64-bit<br>
Writing library : libebml v1.4.4 + libmatroska v1.7.1 / Lavf58.32.104<br>
<br>
Video<br>
ID : 1<br>
Format : AVC<br>
Format/Info : Advanced Video Codec<br>
Format profile : High@L4.1<br>
Format settings : CABAC / 2 Ref Frames<br>
Format settings, CABAC : Yes<br>
Format settings, Reference frames : 2 frames<br>
Codec ID : V_MPEG4/ISO/AVC<br>
Duration : 21 min 4 s<br>
Bit rate : 1 673 kb/s<br>
Width : 1 280 pixels<br>
Height : 720 pixels<br>
Display aspect ratio : 16:9<br>
Frame rate mode : Constant<br>
Frame rate : 24.000 FPS<br>
Color space : YUV<br>
Chroma subsampling : 4:2:0<br>
Bit depth : 8 bits<br>
Scan type : Progressive<br>
Bits/(Pixel*Frame) : 0.076<br>
Stream size : 252 MiB (89%)<br>
Writing library : x264 core 155 r2917 0a84d98<br>
Encoding settings : cabac=1 / ref=1 / deblock=1:0:0 / analyse=0x3:0x133 / me=umh / subme=10 / psy=0 / mixed_ref=0 / me_range=24 / chroma_me=1 / trellis=2 / 8x8dct=1 / cqm=0 / deadzone=21,11 / fast_pskip=1 / chroma_qp_offset=0 / threads=22 / lookahead_threads=1 / sliced_threads=0 / nr=0 / decimate=1 / interlaced=0 / bluray_compat=0 / constrained_intra=0 / bframes=3 / b_pyramid=0 / b_adapt=1 / b_bias=0 / direct=3 / weightb=1 / open_gop=0 / weightp=2 / keyint=24 / keyint_min=2 / scenecut=40 / intra_refresh=0 / rc_lookahead=25 / rc=crf / mbtree=1 / crf=1.0 / qcomp=0.60 / qpmin=0 / qpmax=69 / qpstep=4 / vbv_maxrate=1800 / vbv_bufsize=1900 / crf_max=0.0 / nal_hrd=none / filler=0 / ip_ratio=1.40 / aq=2:1.00<br>
Default : Yes<br>
Forced : No<br>
<br>
Audio<br>
ID : 2<br>
Format : AAC LC<br>
Format/Info : Advanced Audio Codec Low Complexity<br>
Codec ID : A_AAC-2<br>
Duration : 21 min 4 s<br>
Bit rate : 192 kb/s<br>
Channel(s) : 2 channels<br>
Channel layout : L R<br>
Sampling rate : 44.1 kHz<br>
Frame rate : 43.066 FPS (1024 SPF)<br>
Compression mode : Lossy<br>
Delay relative to video : -23 ms<br>
Stream size : 29.2 MiB (10%)<br>
Default : Yes<br>
Forced : No<br>
<br>
Text<br>
ID : 3<br>
Format : UTF-8<br>
Codec ID : S_TEXT/UTF8<br>
Codec ID/Info : UTF-8 Plain Text<br>
Duration : 20 min 38 s<br>
Bit rate : 89 b/s<br>
Frame rate : 0.369 FPS<br>
Count of elements : 457<br>
Stream size : 13.6 KiB (0%)<br>
Language : English<br>
Default : No<br>
Forced : No<br>
<br>
<b><span style="text-decoration: underline">Episode 7: Bratz vs. Bratz</span></b><br>
General<br>
Complete name : Bratz.S02E07.Bratz.vs..Bratz.720p.KDLE.WEB-DL.AAC2.0.x264-Samuel.mkv<br>
Format : Matroska<br>
Format version : Version 4<br>
File size : 287 MiB<br>
Duration : 21 min 6 s<br>
Overall bit rate : 1 902 kb/s<br>
Frame rate : 24.000 FPS<br>
Encoded date : 2023-05-04 09:40:57 UTC<br>
Writing application : mkvmerge v76.0 ('Celebration') 64-bit<br>
Writing library : libebml v1.4.4 + libmatroska v1.7.1 / Lavf58.32.104<br>
<br>
Video<br>
ID : 1<br>
Format : AVC<br>
Format/Info : Advanced Video Codec<br>
Format profile : High@L4.1<br>
Format settings : CABAC / 2 Ref Frames<br>
Format settings, CABAC : Yes<br>
Format settings, Reference frames : 2 frames<br>
Codec ID : V_MPEG4/ISO/AVC<br>
Duration : 21 min 6 s<br>
Bit rate : 1 705 kb/s<br>
Width : 1 280 pixels<br>
Height : 720 pixels<br>
Display aspect ratio : 16:9<br>
Frame rate mode : Constant<br>
Frame rate : 24.000 FPS<br>
Color space : YUV<br>
Chroma subsampling : 4:2:0<br>
Bit depth : 8 bits<br>
Scan type : Progressive<br>
Bits/(Pixel*Frame) : 0.077<br>
Stream size : 257 MiB (90%)<br>
Writing library : x264 core 155 r2917 0a84d98<br>
Encoding settings : cabac=1 / ref=1 / deblock=1:0:0 / analyse=0x3:0x133 / me=umh / subme=10 / psy=0 / mixed_ref=0 / me_range=24 / chroma_me=1 / trellis=2 / 8x8dct=1 / cqm=0 / deadzone=21,11 / fast_pskip=1 / chroma_qp_offset=0 / threads=22 / lookahead_threads=1 / sliced_threads=0 / nr=0 / decimate=1 / interlaced=0 / bluray_compat=0 / constrained_intra=0 / bframes=3 / b_pyramid=0 / b_adapt=1 / b_bias=0 / direct=3 / weightb=1 / open_gop=0 / weightp=2 / keyint=24 / keyint_min=2 / scenecut=40 / intra_refresh=0 / rc_lookahead=25 / rc=crf / mbtree=1 / crf=1.0 / qcomp=0.60 / qpmin=0 / qpmax=69 / qpstep=4 / vbv_maxrate=1800 / vbv_bufsize=1900 / crf_max=0.0 / nal_hrd=none / filler=0 / ip_ratio=1.40 / aq=2:1.00<br>
Default : Yes<br>
Forced : No<br>
<br>
Audio<br>
ID : 2<br>
Format : AAC LC<br>
Format/Info : Advanced Audio Codec Low Complexity<br>
Codec ID : A_AAC-2<br>
Duration : 21 min 6 s<br>
Bit rate : 192 kb/s<br>
Channel(s) : 2 channels<br>
Channel layout : L R<br>
Sampling rate : 44.1 kHz<br>
Frame rate : 43.066 FPS (1024 SPF)<br>
Compression mode : Lossy<br>
Delay relative to video : -23 ms<br>
Stream size : 29.4 MiB (10%)<br>
Language : English<br>
Default : Yes<br>
Forced : No<br>
<br>
Text<br>
ID : 3<br>
Format : UTF-8<br>
Codec ID : S_TEXT/UTF8<br>
Codec ID/Info : UTF-8 Plain Text<br>
Duration : 20 min 49 s<br>
Bit rate : 94 b/s<br>
Frame rate : 0.399 FPS<br>
Count of elements : 499<br>
Stream size : 14.4 KiB (0%)<br>
Language : English<br>
Default : No<br>
Forced : No<br>
<br>
<b><span style="text-decoration: underline">Episode 8: Inner Beauty Queen</span></b><br>
General<br>
Complete name : Bratz.S02E08.Inner.Beauty.Queen.720p.KDLE.WEB-DL.AAC2.0.x264-Samuel.mkv<br>
Format : Matroska<br>
Format version : Version 4<br>
File size : 285 MiB<br>
Duration : 21 min 8 s<br>
Overall bit rate : 1 885 kb/s<br>
Frame rate : 24.000 FPS<br>
Encoded date : 2023-05-04 09:52:22 UTC<br>
Writing application : mkvmerge v76.0 ('Celebration') 64-bit<br>
Writing library : libebml v1.4.4 + libmatroska v1.7.1 / Lavf58.32.104<br>
<br>
Video<br>
ID : 1<br>
Format : AVC<br>
Format/Info : Advanced Video Codec<br>
Format profile : High@L4.1<br>
Format settings : CABAC / 2 Ref Frames<br>
Format settings, CABAC : Yes<br>
Format settings, Reference frames : 2 frames<br>
Codec ID : V_MPEG4/ISO/AVC<br>
Duration : 21 min 8 s<br>
Bit rate : 1 688 kb/s<br>
Width : 1 280 pixels<br>
Height : 720 pixels<br>
Display aspect ratio : 16:9<br>
Frame rate mode : Constant<br>
Frame rate : 24.000 FPS<br>
Color space : YUV<br>
Chroma subsampling : 4:2:0<br>
Bit depth : 8 bits<br>
Scan type : Progressive<br>
Bits/(Pixel*Frame) : 0.076<br>
Stream size : 255 MiB (90%)<br>
Writing library : x264 core 155 r2917 0a84d98<br>
Encoding settings : cabac=1 / ref=1 / deblock=1:0:0 / analyse=0x3:0x133 / me=umh / subme=10 / psy=0 / mixed_ref=0 / me_range=24 / chroma_me=1 / trellis=2 / 8x8dct=1 / cqm=0 / deadzone=21,11 / fast_pskip=1 / chroma_qp_offset=0 / threads=22 / lookahead_threads=1 / sliced_threads=0 / nr=0 / decimate=1 / interlaced=0 / bluray_compat=0 / constrained_intra=0 / bframes=3 / b_pyramid=0 / b_adapt=1 / b_bias=0 / direct=3 / weightb=1 / open_gop=0 / weightp=2 / keyint=24 / keyint_min=2 / scenecut=40 / intra_refresh=0 / rc_lookahead=25 / rc=crf / mbtree=1 / crf=1.0 / qcomp=0.60 / qpmin=0 / qpmax=69 / qpstep=4 / vbv_maxrate=1800 / vbv_bufsize=1900 / crf_max=0.0 / nal_hrd=none / filler=0 / ip_ratio=1.40 / aq=2:1.00<br>
Default : Yes<br>
Forced : No<br>
<br>
Audio<br>
ID : 2<br>
Format : AAC LC<br>
Format/Info : Advanced Audio Codec Low Complexity<br>
Codec ID : A_AAC-2<br>
Duration : 21 min 7 s<br>
Bit rate : 192 kb/s<br>
Channel(s) : 2 channels<br>
Channel layout : L R<br>
Sampling rate : 44.1 kHz<br>
Frame rate : 43.066 FPS (1024 SPF)<br>
Compression mode : Lossy<br>
Delay relative to video : -23 ms<br>
Stream size : 29.3 MiB (10%)<br>
Language : English<br>
Default : Yes<br>
Forced : No<br>
<br>
Text<br>
ID : 3<br>
Format : UTF-8<br>
Codec ID : S_TEXT/UTF8<br>
Codec ID/Info : UTF-8 Plain Text<br>
Duration : 20 min 46 s<br>
Bit rate : 89 b/s<br>
Frame rate : 0.377 FPS<br>
Count of elements : 470<br>
Stream size : 13.7 KiB (0%)<br>
Language : English<br>
Default : No<br>
Forced : No<br>
<br>
<b><span style="text-decoration: underline">Episode 9: Transparently Yours</span></b><br>
General<br>
Complete name : Bratz.S02E09.Transparently.Yours.720p.KDLE.WEB-DL.AAC2.0.x264-Samuel.mkv<br>
Format : Matroska<br>
Format version : Version 4<br>
File size : 283 MiB<br>
Duration : 21 min 7 s<br>
Overall bit rate : 1 876 kb/s<br>
Frame rate : 24.000 FPS<br>
Encoded date : 2023-05-04 09:56:15 UTC<br>
Writing application : mkvmerge v76.0 ('Celebration') 64-bit<br>
Writing library : libebml v1.4.4 + libmatroska v1.7.1 / Lavf58.32.104<br>
<br>
Video<br>
ID : 1<br>
Format : AVC<br>
Format/Info : Advanced Video Codec<br>
Format profile : High@L4.1<br>
Format settings : CABAC / 2 Ref Frames<br>
Format settings, CABAC : Yes<br>
Format settings, Reference frames : 2 frames<br>
Codec ID : V_MPEG4/ISO/AVC<br>
Duration : 21 min 7 s<br>
Bit rate : 1 680 kb/s<br>
Width : 1 280 pixels<br>
Height : 720 pixels<br>
Display aspect ratio : 16:9<br>
Frame rate mode : Constant<br>
Frame rate : 24.000 FPS<br>
Color space : YUV<br>
Chroma subsampling : 4:2:0<br>
Bit depth : 8 bits<br>
Scan type : Progressive<br>
Bits/(Pixel*Frame) : 0.076<br>
Stream size : 254 MiB (90%)<br>
Writing library : x264 core 155 r2917 0a84d98<br>
Encoding settings : cabac=1 / ref=1 / deblock=1:0:0 / analyse=0x3:0x133 / me=umh / subme=10 / psy=0 / mixed_ref=0 / me_range=24 / chroma_me=1 / trellis=2 / 8x8dct=1 / cqm=0 / deadzone=21,11 / fast_pskip=1 / chroma_qp_offset=0 / threads=22 / lookahead_threads=1 / sliced_threads=0 / nr=0 / decimate=1 / interlaced=0 / bluray_compat=0 / constrained_intra=0 / bframes=3 / b_pyramid=0 / b_adapt=1 / b_bias=0 / direct=3 / weightb=1 / open_gop=0 / weightp=2 / keyint=24 / keyint_min=2 / scenecut=40 / intra_refresh=0 / rc_lookahead=25 / rc=crf / mbtree=1 / crf=1.0 / qcomp=0.60 / qpmin=0 / qpmax=69 / qpstep=4 / vbv_maxrate=1800 / vbv_bufsize=1900 / crf_max=0.0 / nal_hrd=none / filler=0 / ip_ratio=1.40 / aq=2:1.00<br>
Default : Yes<br>
Forced : No<br>
<br>
Audio<br>
ID : 2<br>
Format : AAC LC<br>
Format/Info : Advanced Audio Codec Low Complexity<br>
Codec ID : A_AAC-2<br>
Duration : 21 min 7 s<br>
Bit rate : 192 kb/s<br>
Channel(s) : 2 channels<br>
Channel layout : L R<br>
Sampling rate : 44.1 kHz<br>
Frame rate : 43.066 FPS (1024 SPF)<br>
Compression mode : Lossy<br>
Delay relative to video : -23 ms<br>
Stream size : 29.3 MiB (10%)<br>
Language : English<br>
Default : Yes<br>
Forced : No<br>
<br>
Text<br>
ID : 3<br>
Format : UTF-8<br>
Codec ID : S_TEXT/UTF8<br>
Codec ID/Info : UTF-8 Plain Text<br>
Duration : 20 min 48 s<br>
Bit rate : 85 b/s<br>
Frame rate : 0.367 FPS<br>
Count of elements : 458<br>
Stream size : 13.0 KiB (0%)<br>
Language : English<br>
Default : No<br>
Forced : No<br>
<br>
<b><span style="text-decoration: underline">Episode 10: Sporting Chance</span></b><br>
General<br>
Complete name : Bratz.S02E10.Sporting.Chance.720p.KDLE.WEB-DL.AAC2.0.x264-Samuel.mkv<br>
Format : Matroska<br>
Format version : Version 4<br>
File size : 284 MiB<br>
Duration : 21 min 6 s<br>
Overall bit rate : 1 880 kb/s<br>
Frame rate : 24.000 FPS<br>
Encoded date : 2023-05-04 10:03:29 UTC<br>
Writing application : mkvmerge v76.0 ('Celebration') 64-bit<br>
Writing library : libebml v1.4.4 + libmatroska v1.7.1 / Lavf58.32.104<br>
<br>
Video<br>
ID : 1<br>
Format : AVC<br>
Format/Info : Advanced Video Codec<br>
Format profile : High@L4.1<br>
Format settings : CABAC / 2 Ref Frames<br>
Format settings, CABAC : Yes<br>
Format settings, Reference frames : 2 frames<br>
Codec ID : V_MPEG4/ISO/AVC<br>
Duration : 21 min 6 s<br>
Bit rate : 1 684 kb/s<br>
Width : 1 280 pixels<br>
Height : 720 pixels<br>
Display aspect ratio : 16:9<br>
Frame rate mode : Constant<br>
Frame rate : 24.000 FPS<br>
Color space : YUV<br>
Chroma subsampling : 4:2:0<br>
Bit depth : 8 bits<br>
Scan type : Progressive<br>
Bits/(Pixel*Frame) : 0.076<br>
Stream size : 254 MiB (90%)<br>
Writing library : x264 core 155 r2917 0a84d98<br>
Encoding settings : cabac=1 / ref=1 / deblock=1:0:0 / analyse=0x3:0x133 / me=umh / subme=10 / psy=0 / mixed_ref=0 / me_range=24 / chroma_me=1 / trellis=2 / 8x8dct=1 / cqm=0 / deadzone=21,11 / fast_pskip=1 / chroma_qp_offset=0 / threads=22 / lookahead_threads=1 / sliced_threads=0 / nr=0 / decimate=1 / interlaced=0 / bluray_compat=0 / constrained_intra=0 / bframes=3 / b_pyramid=0 / b_adapt=1 / b_bias=0 / direct=3 / weightb=1 / open_gop=0 / weightp=2 / keyint=24 / keyint_min=2 / scenecut=40 / intra_refresh=0 / rc_lookahead=25 / rc=crf / mbtree=1 / crf=1.0 / qcomp=0.60 / qpmin=0 / qpmax=69 / qpstep=4 / vbv_maxrate=1800 / vbv_bufsize=1900 / crf_max=0.0 / nal_hrd=none / filler=0 / ip_ratio=1.40 / aq=2:1.00<br>
Default : Yes<br>
Forced : No<br>
<br>
Audio<br>
ID : 2<br>
Format : AAC LC<br>
Format/Info : Advanced Audio Codec Low Complexity<br>
Codec ID : A_AAC-2<br>
Duration : 21 min 6 s<br>
Bit rate : 192 kb/s<br>
Channel(s) : 2 channels<br>
Channel layout : L R<br>
Sampling rate : 44.1 kHz<br>
Frame rate : 43.066 FPS (1024 SPF)<br>
Compression mode : Lossy<br>
Delay relative to video : -23 ms<br>
Stream size : 29.3 MiB (10%)<br>
Language : English<br>
Default : Yes<br>
Forced : No<br>
<br>
Text<br>
ID : 3<br>
Format : UTF-8<br>
Codec ID : S_TEXT/UTF8<br>
Codec ID/Info : UTF-8 Plain Text<br>
Duration : 20 min 48 s<br>
Bit rate : 79 b/s<br>
Frame rate : 0.371 FPS<br>
Count of elements : 463<br>
Stream size : 12.1 KiB (0%)<br>
Language : English<br>
Default : No<br>
Forced : No<br>
<br>
<b><span style="text-decoration: underline">Episode 11: Just Dance - Camp Starshine</span></b><br>
General<br>
Complete name : Bratz.S02E11.Just.Dance.Camp.Starshine.720p.KDLE.WEB-DL.AAC2.0.x264-Samuel.mkv<br>
Format : Matroska<br>
Format version : Version 4<br>
File size : 282 MiB<br>
Duration : 21 min 7 s<br>
Overall bit rate : 1 864 kb/s<br>
Frame rate : 24.000 FPS<br>
Encoded date : 2023-05-01 16:40:53 UTC<br>
Writing application : mkvmerge v76.0 ('Celebration') 64-bit<br>
Writing library : libebml v1.4.4 + libmatroska v1.7.1 / Lavf58.32.104<br>
<br>
Video<br>
ID : 1<br>
Format : AVC<br>
Format/Info : Advanced Video Codec<br>
Format profile : High@L4.1<br>
Format settings : CABAC / 2 Ref Frames<br>
Format settings, CABAC : Yes<br>
Format settings, Reference frames : 2 frames<br>
Codec ID : V_MPEG4/ISO/AVC<br>
Duration : 21 min 7 s<br>
Bit rate : 1 668 kb/s<br>
Width : 1 280 pixels<br>
Height : 720 pixels<br>
Display aspect ratio : 16:9<br>
Frame rate mode : Constant<br>
Frame rate : 24.000 FPS<br>
Color space : YUV<br>
Chroma subsampling : 4:2:0<br>
Bit depth : 8 bits<br>
Scan type : Progressive<br>
Bits/(Pixel*Frame) : 0.075<br>
Stream size : 252 MiB (89%)<br>
Writing library : x264 core 155 r2917 0a84d98<br>
Encoding settings : cabac=1 / ref=1 / deblock=1:0:0 / analyse=0x3:0x133 / me=umh / subme=10 / psy=0 / mixed_ref=0 / me_range=24 / chroma_me=1 / trellis=2 / 8x8dct=1 / cqm=0 / deadzone=21,11 / fast_pskip=1 / chroma_qp_offset=0 / threads=22 / lookahead_threads=1 / sliced_threads=0 / nr=0 / decimate=1 / interlaced=0 / bluray_compat=0 / constrained_intra=0 / bframes=3 / b_pyramid=0 / b_adapt=1 / b_bias=0 / direct=3 / weightb=1 / open_gop=0 / weightp=2 / keyint=24 / keyint_min=2 / scenecut=40 / intra_refresh=0 / rc_lookahead=25 / rc=crf / mbtree=1 / crf=1.0 / qcomp=0.60 / qpmin=0 / qpmax=69 / qpstep=4 / vbv_maxrate=1800 / vbv_bufsize=1900 / crf_max=0.0 / nal_hrd=none / filler=0 / ip_ratio=1.40 / aq=2:1.00<br>
Default : Yes<br>
Forced : No<br>
<br>
Audio<br>
ID : 2<br>
Format : AAC LC<br>
Format/Info : Advanced Audio Codec Low Complexity<br>
Codec ID : A_AAC-2<br>
Duration : 21 min 7 s<br>
Bit rate : 192 kb/s<br>
Channel(s) : 2 channels<br>
Channel layout : L R<br>
Sampling rate : 44.1 kHz<br>
Frame rate : 43.066 FPS (1024 SPF)<br>
Compression mode : Lossy<br>
Delay relative to video : -23 ms<br>
Stream size : 29.2 MiB (10%)<br>
Language : English<br>
Default : Yes<br>
Forced : No<br>
<br>
Text<br>
ID : 3<br>
Format : UTF-8<br>
Codec ID : S_TEXT/UTF8<br>
Codec ID/Info : UTF-8 Plain Text<br>
Duration : 20 min 46 s<br>
Bit rate : 78 b/s<br>
Frame rate : 0.366 FPS<br>
Count of elements : 456<br>
Stream size : 12.0 KiB (0%)<br>
Language : English<br>
Default : No<br>
Forced : No<br>
<br>
<b><span style="text-decoration: underline">Episode 12: Just Dance - Ballet Divas</span></b><br>
General<br>
Complete name : Bratz.S02E12.Just.Dance.Ballet.Divas.720p.KDLE.WEB-DL.AAC2.0.x264-Samuel.mkv<br>
Format : Matroska<br>
Format version : Version 4<br>
File size : 284 MiB<br>
Duration : 21 min 8 s<br>
Overall bit rate : 1 880 kb/s<br>
Frame rate : 24.000 FPS<br>
Encoded date : 2023-05-04 10:10:19 UTC<br>
Writing application : mkvmerge v76.0 ('Celebration') 64-bit<br>
Writing library : libebml v1.4.4 + libmatroska v1.7.1 / Lavf58.32.104<br>
<br>
Video<br>
ID : 1<br>
Format : AVC<br>
Format/Info : Advanced Video Codec<br>
Format profile : High@L4.1<br>
Format settings : CABAC / 2 Ref Frames<br>
Format settings, CABAC : Yes<br>
Format settings, Reference frames : 2 frames<br>
Codec ID : V_MPEG4/ISO/AVC<br>
Duration : 21 min 8 s<br>
Bit rate : 1 684 kb/s<br>
Width : 1 280 pixels<br>
Height : 720 pixels<br>
Display aspect ratio : 16:9<br>
Frame rate mode : Constant<br>
Frame rate : 24.000 FPS<br>
Color space : YUV<br>
Chroma subsampling : 4:2:0<br>
Bit depth : 8 bits<br>
Scan type : Progressive<br>
Bits/(Pixel*Frame) : 0.076<br>
Stream size : 255 MiB (90%)<br>
Writing library : x264 core 155 r2917 0a84d98<br>
Encoding settings : cabac=1 / ref=1 / deblock=1:0:0 / analyse=0x3:0x133 / me=umh / subme=10 / psy=0 / mixed_ref=0 / me_range=24 / chroma_me=1 / trellis=2 / 8x8dct=1 / cqm=0 / deadzone=21,11 / fast_pskip=1 / chroma_qp_offset=0 / threads=22 / lookahead_threads=1 / sliced_threads=0 / nr=0 / decimate=1 / interlaced=0 / bluray_compat=0 / constrained_intra=0 / bframes=3 / b_pyramid=0 / b_adapt=1 / b_bias=0 / direct=3 / weightb=1 / open_gop=0 / weightp=2 / keyint=24 / keyint_min=2 / scenecut=40 / intra_refresh=0 / rc_lookahead=25 / rc=crf / mbtree=1 / crf=1.0 / qcomp=0.60 / qpmin=0 / qpmax=69 / qpstep=4 / vbv_maxrate=1800 / vbv_bufsize=1900 / crf_max=0.0 / nal_hrd=none / filler=0 / ip_ratio=1.40 / aq=2:1.00<br>
Default : Yes<br>
Forced : No<br>
<br>
Audio<br>
ID : 2<br>
Format : AAC LC<br>
Format/Info : Advanced Audio Codec Low Complexity<br>
Codec ID : A_AAC-2<br>
Duration : 21 min 7 s<br>
Bit rate : 192 kb/s<br>
Channel(s) : 2 channels<br>
Channel layout : L R<br>
Sampling rate : 44.1 kHz<br>
Frame rate : 43.066 FPS (1024 SPF)<br>
Compression mode : Lossy<br>
Delay relative to video : -23 ms<br>
Stream size : 29.2 MiB (10%)<br>
Language : English<br>
Default : Yes<br>
Forced : No<br>
<br>
Text<br>
ID : 3<br>
Format : UTF-8<br>
Codec ID : S_TEXT/UTF8<br>
Codec ID/Info : UTF-8 Plain Text<br>
Duration : 20 min 46 s<br>
Bit rate : 85 b/s<br>
Frame rate : 0.352 FPS<br>
Count of elements : 439<br>
Stream size : 12.9 KiB (0%)<br>
Language : English<br>
Default : No<br>
Forced : No<br>
<br>
<b><span style="text-decoration: underline">Episode 13: Just Dance - Just Dance</span></b><br>
General<br>
Complete name : Bratz.S02E13.Just.Dance.Just.Dance.720p.KDLE.WEB-DL.AAC2.0.x264-Samuel.mkv<br>
Format : Matroska<br>
Format version : Version 4<br>
File size : 278 MiB<br>
Duration : 21 min 8 s<br>
Overall bit rate : 1 837 kb/s<br>
Frame rate : 24.000 FPS<br>
Encoded date : 2023-05-04 10:18:11 UTC<br>
Writing application : mkvmerge v76.0 ('Celebration') 64-bit<br>
Writing library : libebml v1.4.4 + libmatroska v1.7.1 / Lavf58.32.104<br>
<br>
Video<br>
ID : 1<br>
Format : AVC<br>
Format/Info : Advanced Video Codec<br>
Format profile : High@L4.1<br>
Format settings : CABAC / 2 Ref Frames<br>
Format settings, CABAC : Yes<br>
Format settings, Reference frames : 2 frames<br>
Codec ID : V_MPEG4/ISO/AVC<br>
Duration : 21 min 8 s<br>
Bit rate : 1 641 kb/s<br>
Width : 1 280 pixels<br>
Height : 720 pixels<br>
Display aspect ratio : 16:9<br>
Frame rate mode : Constant<br>
Frame rate : 24.000 FPS<br>
Color space : YUV<br>
Chroma subsampling : 4:2:0<br>
Bit depth : 8 bits<br>
Scan type : Progressive<br>
Bits/(Pixel*Frame) : 0.074<br>
Stream size : 248 MiB (89%)<br>
Writing library : x264 core 155 r2917 0a84d98<br>
Encoding settings : cabac=1 / ref=1 / deblock=1:0:0 / analyse=0x3:0x133 / me=umh / subme=10 / psy=0 / mixed_ref=0 / me_range=24 / chroma_me=1 / trellis=2 / 8x8dct=1 / cqm=0 / deadzone=21,11 / fast_pskip=1 / chroma_qp_offset=0 / threads=22 / lookahead_threads=1 / sliced_threads=0 / nr=0 / decimate=1 / interlaced=0 / bluray_compat=0 / constrained_intra=0 / bframes=3 / b_pyramid=0 / b_adapt=1 / b_bias=0 / direct=3 / weightb=1 / open_gop=0 / weightp=2 / keyint=24 / keyint_min=2 / scenecut=40 / intra_refresh=0 / rc_lookahead=25 / rc=crf / mbtree=1 / crf=1.0 / qcomp=0.60 / qpmin=0 / qpmax=69 / qpstep=4 / vbv_maxrate=1800 / vbv_bufsize=1900 / crf_max=0.0 / nal_hrd=none / filler=0 / ip_ratio=1.40 / aq=2:1.00<br>
Default : Yes<br>
Forced : No<br>
<br>
Audio<br>
ID : 2<br>
Format : AAC LC<br>
Format/Info : Advanced Audio Codec Low Complexity<br>
Codec ID : A_AAC-2<br>
Duration : 21 min 7 s<br>
Bit rate : 192 kb/s<br>
Channel(s) : 2 channels<br>
Channel layout : L R<br>
Sampling rate : 44.1 kHz<br>
Frame rate : 43.066 FPS (1024 SPF)<br>
Compression mode : Lossy<br>
Delay relative to video : -23 ms<br>
Stream size : 29.2 MiB (11%)<br>
Language : English<br>
Default : Yes<br>
Forced : No<br>
<br>
Text<br>
ID : 3<br>
Format : UTF-8<br>
Codec ID : S_TEXT/UTF8<br>
Codec ID/Info : UTF-8 Plain Text<br>
Duration : 20 min 46 s<br>
Bit rate : 80 b/s<br>
Frame rate : 0.398 FPS<br>
Count of elements : 496<br>
Stream size : 12.2 KiB (0%)<br>
Language : English<br>
Default : No<br>
Forced : No<br>
<br>
<b><span style="text-decoration: underline">Episode 14: Alien Encounterz</span></b><br>
General<br>
Complete name : Bratz.S02E14.Alien.Encounterz.720p.KDLE.WEB-DL.AAC2.0.x264-Samuel.mkv<br>
Format : Matroska<br>
Format version : Version 4<br>
File size : 282 MiB<br>
Duration : 21 min 7 s<br>
Overall bit rate : 1 864 kb/s<br>
Frame rate : 24.000 FPS<br>
Encoded date : 2023-05-04 10:24:21 UTC<br>
Writing application : mkvmerge v76.0 ('Celebration') 64-bit<br>
Writing library : libebml v1.4.4 + libmatroska v1.7.1 / Lavf58.32.104<br>
<br>
Video<br>
ID : 1<br>
Format : AVC<br>
Format/Info : Advanced Video Codec<br>
Format profile : High@L4.1<br>
Format settings : CABAC / 2 Ref Frames<br>
Format settings, CABAC : Yes<br>
Format settings, Reference frames : 2 frames<br>
Codec ID : V_MPEG4/ISO/AVC<br>
Duration : 21 min 7 s<br>
Bit rate : 1 668 kb/s<br>
Width : 1 280 pixels<br>
Height : 720 pixels<br>
Display aspect ratio : 16:9<br>
Frame rate mode : Constant<br>
Frame rate : 24.000 FPS<br>
Color space : YUV<br>
Chroma subsampling : 4:2:0<br>
Bit depth : 8 bits<br>
Scan type : Progressive<br>
Bits/(Pixel*Frame) : 0.075<br>
Stream size : 252 MiB (89%)<br>
Writing library : x264 core 155 r2917 0a84d98<br>
Encoding settings : cabac=1 / ref=1 / deblock=1:0:0 / analyse=0x3:0x133 / me=umh / subme=10 / psy=0 / mixed_ref=0 / me_range=24 / chroma_me=1 / trellis=2 / 8x8dct=1 / cqm=0 / deadzone=21,11 / fast_pskip=1 / chroma_qp_offset=0 / threads=22 / lookahead_threads=1 / sliced_threads=0 / nr=0 / decimate=1 / interlaced=0 / bluray_compat=0 / constrained_intra=0 / bframes=3 / b_pyramid=0 / b_adapt=1 / b_bias=0 / direct=3 / weightb=1 / open_gop=0 / weightp=2 / keyint=24 / keyint_min=2 / scenecut=40 / intra_refresh=0 / rc_lookahead=25 / rc=crf / mbtree=1 / crf=1.0 / qcomp=0.60 / qpmin=0 / qpmax=69 / qpstep=4 / vbv_maxrate=1800 / vbv_bufsize=1900 / crf_max=0.0 / nal_hrd=none / filler=0 / ip_ratio=1.40 / aq=2:1.00<br>
Default : Yes<br>
Forced : No<br>
<br>
Audio<br>
ID : 2<br>
Format : AAC LC<br>
Format/Info : Advanced Audio Codec Low Complexity<br>
Codec ID : A_AAC-2<br>
Duration : 21 min 7 s<br>
Bit rate : 192 kb/s<br>
Channel(s) : 2 channels<br>
Channel layout : L R<br>
Sampling rate : 44.1 kHz<br>
Frame rate : 43.066 FPS (1024 SPF)<br>
Compression mode : Lossy<br>
Delay relative to video : -23 ms<br>
Stream size : 29.2 MiB (10%)<br>
Language : English<br>
Default : Yes<br>
Forced : No<br>
<br>
Text<br>
ID : 3<br>
Format : UTF-8<br>
Codec ID : S_TEXT/UTF8<br>
Codec ID/Info : UTF-8 Plain Text<br>
Duration : 20 min 48 s<br>
Bit rate : 90 b/s<br>
Frame rate : 0.341 FPS<br>
Count of elements : 426<br>
Stream size : 13.8 KiB (0%)<br>
Language : English<br>
Default : No<br>
Forced : No<br>
<br>
<b><span style="text-decoration: underline">Episode 15: Rescue Askew</span></b><br>
General<br>
Complete name : Bratz.S02E15.Rescue.Askew.720p.KDLE.WEB-DL.AAC2.0.x264-Samuel.mkv<br>
Format : Matroska<br>
Format version : Version 4<br>
File size : 280 MiB<br>
Duration : 21 min 7 s<br>
Overall bit rate : 1 856 kb/s<br>
Frame rate : 24.000 FPS<br>
Encoded date : 2023-05-04 11:02:25 UTC<br>
Writing application : mkvmerge v76.0 ('Celebration') 64-bit<br>
Writing library : libebml v1.4.4 + libmatroska v1.7.1 / Lavf58.32.104<br>
<br>
Video<br>
ID : 1<br>
Format : AVC<br>
Format/Info : Advanced Video Codec<br>
Format profile : High@L4.1<br>
Format settings : CABAC / 2 Ref Frames<br>
Format settings, CABAC : Yes<br>
Format settings, Reference frames : 2 frames<br>
Codec ID : V_MPEG4/ISO/AVC<br>
Duration : 21 min 7 s<br>
Bit rate : 1 659 kb/s<br>
Width : 1 280 pixels<br>
Height : 720 pixels<br>
Display aspect ratio : 16:9<br>
Frame rate mode : Constant<br>
Frame rate : 24.000 FPS<br>
Color space : YUV<br>
Chroma subsampling : 4:2:0<br>
Bit depth : 8 bits<br>
Scan type : Progressive<br>
Bits/(Pixel*Frame) : 0.075<br>
Stream size : 251 MiB (89%)<br>
Writing library : x264 core 155 r2917 0a84d98<br>
Encoding settings : cabac=1 / ref=1 / deblock=1:0:0 / analyse=0x3:0x133 / me=umh / subme=10 / psy=0 / mixed_ref=0 / me_range=24 / chroma_me=1 / trellis=2 / 8x8dct=1 / cqm=0 / deadzone=21,11 / fast_pskip=1 / chroma_qp_offset=0 / threads=22 / lookahead_threads=1 / sliced_threads=0 / nr=0 / decimate=1 / interlaced=0 / bluray_compat=0 / constrained_intra=0 / bframes=3 / b_pyramid=0 / b_adapt=1 / b_bias=0 / direct=3 / weightb=1 / open_gop=0 / weightp=2 / keyint=24 / keyint_min=2 / scenecut=40 / intra_refresh=0 / rc_lookahead=25 / rc=crf / mbtree=1 / crf=1.0 / qcomp=0.60 / qpmin=0 / qpmax=69 / qpstep=4 / vbv_maxrate=1800 / vbv_bufsize=1900 / crf_max=0.0 / nal_hrd=none / filler=0 / ip_ratio=1.40 / aq=2:1.00<br>
Default : Yes<br>
Forced : No<br>
<br>
Audio<br>
ID : 2<br>
Format : AAC LC<br>
Format/Info : Advanced Audio Codec Low Complexity<br>
Codec ID : A_AAC-2<br>
Duration : 21 min 7 s<br>
Bit rate : 192 kb/s<br>
Channel(s) : 2 channels<br>
Channel layout : L R<br>
Sampling rate : 44.1 kHz<br>
Frame rate : 43.066 FPS (1024 SPF)<br>
Compression mode : Lossy<br>
Delay relative to video : -23 ms<br>
Stream size : 29.3 MiB (10%)<br>
Language : English<br>
Default : Yes<br>
Forced : No<br>
<br>
Text<br>
ID : 3<br>
Format : UTF-8<br>
Codec ID : S_TEXT/UTF8<br>
Codec ID/Info : UTF-8 Plain Text<br>
Duration : 20 min 38 s<br>
Bit rate : 83 b/s<br>
Frame rate : 0.370 FPS<br>
Count of elements : 459<br>
Stream size : 12.7 KiB (0%)<br>
Language : English<br>
Default : No<br>
Forced : No<br>
<br>
<b><span style="text-decoration: underline">Episode 16: Bye Bye Burdine</span></b><br>
General<br>
Complete name : Bratz.S02E16.Bye.Bye.Burdine.720p.KDLE.WEB-DL.AAC2.0.x264-Samuel.mkv<br>
Format : Matroska<br>
Format version : Version 4<br>
File size : 279 MiB<br>
Duration : 21 min 7 s<br>
Overall bit rate : 1 847 kb/s<br>
Frame rate : 24.000 FPS<br>
Encoded date : 2023-05-04 11:07:08 UTC<br>
Writing application : mkvmerge v76.0 ('Celebration') 64-bit<br>
Writing library : libebml v1.4.4 + libmatroska v1.7.1 / Lavf58.32.104<br>
<br>
Video<br>
ID : 1<br>
Format : AVC<br>
Format/Info : Advanced Video Codec<br>
Format profile : High@L4.1<br>
Format settings : CABAC / 2 Ref Frames<br>
Format settings, CABAC : Yes<br>
Format settings, Reference frames : 2 frames<br>
Codec ID : V_MPEG4/ISO/AVC<br>
Duration : 21 min 7 s<br>
Bit rate : 1 649 kb/s<br>
Width : 1 280 pixels<br>
Height : 720 pixels<br>
Display aspect ratio : 16:9<br>
Frame rate mode : Constant<br>
Frame rate : 24.000 FPS<br>
Color space : YUV<br>
Chroma subsampling : 4:2:0<br>
Bit depth : 8 bits<br>
Scan type : Progressive<br>
Bits/(Pixel*Frame) : 0.075<br>
Stream size : 249 MiB (89%)<br>
Writing library : x264 core 155 r2917 0a84d98<br>
Encoding settings : cabac=1 / ref=1 / deblock=1:0:0 / analyse=0x3:0x133 / me=umh / subme=10 / psy=0 / mixed_ref=0 / me_range=24 / chroma_me=1 / trellis=2 / 8x8dct=1 / cqm=0 / deadzone=21,11 / fast_pskip=1 / chroma_qp_offset=0 / threads=22 / lookahead_threads=1 / sliced_threads=0 / nr=0 / decimate=1 / interlaced=0 / bluray_compat=0 / constrained_intra=0 / bframes=3 / b_pyramid=0 / b_adapt=1 / b_bias=0 / direct=3 / weightb=1 / open_gop=0 / weightp=2 / keyint=24 / keyint_min=2 / scenecut=40 / intra_refresh=0 / rc_lookahead=25 / rc=crf / mbtree=1 / crf=1.0 / qcomp=0.60 / qpmin=0 / qpmax=69 / qpstep=4 / vbv_maxrate=1800 / vbv_bufsize=1900 / crf_max=0.0 / nal_hrd=none / filler=0 / ip_ratio=1.40 / aq=2:1.00<br>
Default : Yes<br>
Forced : No<br>
<br>
Audio<br>
ID : 2<br>
Format : AAC LC<br>
Format/Info : Advanced Audio Codec Low Complexity<br>
Codec ID : A_AAC-2<br>
Duration : 21 min 7 s<br>
Bit rate : 192 kb/s<br>
Channel(s) : 2 channels<br>
Channel layout : L R<br>
Sampling rate : 44.1 kHz<br>
Frame rate : 43.066 FPS (1024 SPF)<br>
Compression mode : Lossy<br>
Delay relative to video : -23 ms<br>
Stream size : 29.4 MiB (11%)<br>
Language : English<br>
Default : Yes<br>
Forced : No<br>
<br>
Text<br>
ID : 3<br>
Format : UTF-8<br>
Codec ID : S_TEXT/UTF8<br>
Codec ID/Info : UTF-8 Plain Text<br>
Duration : 20 min 46 s<br>
Bit rate : 84 b/s<br>
Frame rate : 0.347 FPS<br>
Count of elements : 433<br>
Stream size : 12.8 KiB (0%)<br>
Language : English<br>
Default : No<br>
Forced : No<br>
<br>
<b><span style="text-decoration: underline">Episode 17: Great Melting Pot</span></b><br>
General<br>
Complete name : Bratz.S02E17.Great.Melting.Pot.720p.KDLE.WEB-DL.AAC2.0.x264-Samuel.mkv<br>
Format : Matroska<br>
Format version : Version 4<br>
File size : 282 MiB<br>
Duration : 21 min 7 s<br>
Overall bit rate : 1 866 kb/s<br>
Frame rate : 24.000 FPS<br>
Encoded date : 2023-05-04 10:32:19 UTC<br>
Writing application : mkvmerge v76.0 ('Celebration') 64-bit<br>
Writing library : libebml v1.4.4 + libmatroska v1.7.1 / Lavf58.32.104<br>
<br>
Video<br>
ID : 1<br>
Format : AVC<br>
Format/Info : Advanced Video Codec<br>
Format profile : High@L4.1<br>
Format settings : CABAC / 2 Ref Frames<br>
Format settings, CABAC : Yes<br>
Format settings, Reference frames : 2 frames<br>
Codec ID : V_MPEG4/ISO/AVC<br>
Duration : 21 min 7 s<br>
Bit rate : 1 670 kb/s<br>
Width : 1 280 pixels<br>
Height : 720 pixels<br>
Display aspect ratio : 16:9<br>
Frame rate mode : Constant<br>
Frame rate : 24.000 FPS<br>
Color space : YUV<br>
Chroma subsampling : 4:2:0<br>
Bit depth : 8 bits<br>
Scan type : Progressive<br>
Bits/(Pixel*Frame) : 0.075<br>
Stream size : 252 MiB (89%)<br>
Writing library : x264 core 155 r2917 0a84d98<br>
Encoding settings : cabac=1 / ref=1 / deblock=1:0:0 / analyse=0x3:0x133 / me=umh / subme=10 / psy=0 / mixed_ref=0 / me_range=24 / chroma_me=1 / trellis=2 / 8x8dct=1 / cqm=0 / deadzone=21,11 / fast_pskip=1 / chroma_qp_offset=0 / threads=22 / lookahead_threads=1 / sliced_threads=0 / nr=0 / decimate=1 / interlaced=0 / bluray_compat=0 / constrained_intra=0 / bframes=3 / b_pyramid=0 / b_adapt=1 / b_bias=0 / direct=3 / weightb=1 / open_gop=0 / weightp=2 / keyint=24 / keyint_min=2 / scenecut=40 / intra_refresh=0 / rc_lookahead=25 / rc=crf / mbtree=1 / crf=1.0 / qcomp=0.60 / qpmin=0 / qpmax=69 / qpstep=4 / vbv_maxrate=1800 / vbv_bufsize=1900 / crf_max=0.0 / nal_hrd=none / filler=0 / ip_ratio=1.40 / aq=2:1.00<br>
Default : Yes<br>
Forced : No<br>
<br>
Audio<br>
ID : 2<br>
Format : AAC LC<br>
Format/Info : Advanced Audio Codec Low Complexity<br>
Codec ID : A_AAC-2<br>
Duration : 21 min 7 s<br>
Bit rate : 192 kb/s<br>
Channel(s) : 2 channels<br>
Channel layout : L R<br>
Sampling rate : 44.1 kHz<br>
Frame rate : 43.066 FPS (1024 SPF)<br>
Compression mode : Lossy<br>
Delay relative to video : -23 ms<br>
Stream size : 29.3 MiB (10%)<br>
Language : English<br>
Default : Yes<br>
Forced : No<br>
<br>
Text<br>
ID : 3<br>
Format : UTF-8<br>
Codec ID : S_TEXT/UTF8<br>
Codec ID/Info : UTF-8 Plain Text<br>
Duration : 20 min 56 s<br>
Bit rate : 85 b/s<br>
Frame rate : 0.349 FPS<br>
Count of elements : 439<br>
Stream size : 13.2 KiB (0%)<br>
Language : English<br>
Default : No<br>
Forced : No<br>
<br>
<b><span style="text-decoration: underline">Episode 18: Chronicles of Karma</span></b><br>
General<br>
Complete name : Bratz.S02E18.Chronicles.of.Karma.720p.KDLE.WEB-DL.AAC2.0.x264-Samuel.mkv<br>
Format : Matroska<br>
Format version : Version 4<br>
File size : 291 MiB<br>
Duration : 21 min 8 s<br>
Overall bit rate : 1 922 kb/s<br>
Frame rate : 24.000 FPS<br>
Encoded date : 2023-05-05 15:36:03 UTC<br>
Writing application : mkvmerge v76.0 ('Celebration') 64-bit<br>
Writing library : libebml v1.4.4 + libmatroska v1.7.1 / Lavf58.32.104<br>
<br>
Video<br>
ID : 1<br>
Format : AVC<br>
Format/Info : Advanced Video Codec<br>
Format profile : High@L4.1<br>
Format settings : CABAC / 2 Ref Frames<br>
Format settings, CABAC : Yes<br>
Format settings, Reference frames : 2 frames<br>
Codec ID : V_MPEG4/ISO/AVC<br>
Duration : 21 min 8 s<br>
Bit rate : 1 726 kb/s<br>
Width : 1 280 pixels<br>
Height : 720 pixels<br>
Display aspect ratio : 16:9<br>
Frame rate mode : Constant<br>
Frame rate : 24.000 FPS<br>
Color space : YUV<br>
Chroma subsampling : 4:2:0<br>
Bit depth : 8 bits<br>
Scan type : Progressive<br>
Bits/(Pixel*Frame) : 0.078<br>
Stream size : 261 MiB (90%)<br>
Writing library : x264 core 155 r2917 0a84d98<br>
Encoding settings : cabac=1 / ref=1 / deblock=1:0:0 / analyse=0x3:0x133 / me=umh / subme=10 / psy=0 / mixed_ref=0 / me_range=24 / chroma_me=1 / trellis=2 / 8x8dct=1 / cqm=0 / deadzone=21,11 / fast_pskip=1 / chroma_qp_offset=0 / threads=22 / lookahead_threads=1 / sliced_threads=0 / nr=0 / decimate=1 / interlaced=0 / bluray_compat=0 / constrained_intra=0 / bframes=3 / b_pyramid=0 / b_adapt=1 / b_bias=0 / direct=3 / weightb=1 / open_gop=0 / weightp=2 / keyint=24 / keyint_min=2 / scenecut=40 / intra_refresh=0 / rc_lookahead=25 / rc=crf / mbtree=1 / crf=1.0 / qcomp=0.60 / qpmin=0 / qpmax=69 / qpstep=4 / vbv_maxrate=1800 / vbv_bufsize=1900 / crf_max=0.0 / nal_hrd=none / filler=0 / ip_ratio=1.40 / aq=2:1.00<br>
Default : Yes<br>
Forced : No<br>
<br>
Audio<br>
ID : 2<br>
Format : AAC LC<br>
Format/Info : Advanced Audio Codec Low Complexity<br>
Codec ID : A_AAC-2<br>
Duration : 21 min 7 s<br>
Bit rate : 192 kb/s<br>
Channel(s) : 2 channels<br>
Channel layout : L R<br>
Sampling rate : 44.1 kHz<br>
Frame rate : 43.066 FPS (1024 SPF)<br>
Compression mode : Lossy<br>
Delay relative to video : -23 ms<br>
Stream size : 29.2 MiB (10%)<br>
Language : English<br>
Default : Yes<br>
Forced : No<br>
<br>
Text<br>
ID : 3<br>
Format : UTF-8<br>
Codec ID : S_TEXT/UTF8<br>
Codec ID/Info : UTF-8 Plain Text<br>
Duration : 20 min 56 s<br>
Bit rate : 83 b/s<br>
Frame rate : 0.335 FPS<br>
Count of elements : 421<br>
Stream size : 12.8 KiB (0%)<br>
Language : English<br>
Default : No<br>
Forced : No<br>
<br>
<b><span style="text-decoration: underline">Episode 19: Life of Byron</span></b><br>
General<br>
Complete name : Bratz.S02E19.Life.of.Byron.720p.KDLE.WEB-DL.AAC2.0.x264-Samuel.mkv<br>
Format : Matroska<br>
Format version : Version 4<br>
File size : 280 MiB<br>
Duration : 21 min 8 s<br>
Overall bit rate : 1 849 kb/s<br>
Frame rate : 24.000 FPS<br>
Encoded date : 2023-05-05 15:43:58 UTC<br>
Writing application : mkvmerge v76.0 ('Celebration') 64-bit<br>
Writing library : libebml v1.4.4 + libmatroska v1.7.1 / Lavf58.32.104<br>
<br>
Video<br>
ID : 1<br>
Format : AVC<br>
Format/Info : Advanced Video Codec<br>
Format profile : High@L4.1<br>
Format settings : CABAC / 2 Ref Frames<br>
Format settings, CABAC : Yes<br>
Format settings, Reference frames : 2 frames<br>
Codec ID : V_MPEG4/ISO/AVC<br>
Duration : 21 min 8 s<br>
Bit rate : 1 653 kb/s<br>
Width : 1 280 pixels<br>
Height : 720 pixels<br>
Display aspect ratio : 16:9<br>
Frame rate mode : Constant<br>
Frame rate : 24.000 FPS<br>
Color space : YUV<br>
Chroma subsampling : 4:2:0<br>
Bit depth : 8 bits<br>
Scan type : Progressive<br>
Bits/(Pixel*Frame) : 0.075<br>
Stream size : 250 MiB (89%)<br>
Writing library : x264 core 155 r2917 0a84d98<br>
Encoding settings : cabac=1 / ref=1 / deblock=1:0:0 / analyse=0x3:0x133 / me=umh / subme=10 / psy=0 / mixed_ref=0 / me_range=24 / chroma_me=1 / trellis=2 / 8x8dct=1 / cqm=0 / deadzone=21,11 / fast_pskip=1 / chroma_qp_offset=0 / threads=22 / lookahead_threads=1 / sliced_threads=0 / nr=0 / decimate=1 / interlaced=0 / bluray_compat=0 / constrained_intra=0 / bframes=3 / b_pyramid=0 / b_adapt=1 / b_bias=0 / direct=3 / weightb=1 / open_gop=0 / weightp=2 / keyint=24 / keyint_min=2 / scenecut=40 / intra_refresh=0 / rc_lookahead=25 / rc=crf / mbtree=1 / crf=1.0 / qcomp=0.60 / qpmin=0 / qpmax=69 / qpstep=4 / vbv_maxrate=1800 / vbv_bufsize=1900 / crf_max=0.0 / nal_hrd=none / filler=0 / ip_ratio=1.40 / aq=2:1.00<br>
Default : Yes<br>
Forced : No<br>
<br>
Audio<br>
ID : 2<br>
Format : AAC LC<br>
Format/Info : Advanced Audio Codec Low Complexity<br>
Codec ID : A_AAC-2<br>
Duration : 21 min 7 s<br>
Bit rate : 192 kb/s<br>
Channel(s) : 2 channels<br>
Channel layout : L R<br>
Sampling rate : 44.1 kHz<br>
Frame rate : 43.066 FPS (1024 SPF)<br>
Compression mode : Lossy<br>
Delay relative to video : -23 ms<br>
Stream size : 29.3 MiB (10%)<br>
Language : English<br>
Default : Yes<br>
Forced : No<br>
<br>
Text<br>
ID : 3<br>
Format : UTF-8<br>
Codec ID : S_TEXT/UTF8<br>
Codec ID/Info : UTF-8 Plain Text<br>
Duration : 20 min 56 s<br>
Bit rate : 81 b/s<br>
Frame rate : 0.353 FPS<br>
Count of elements : 443<br>
Stream size : 12.5 KiB (0%)<br>
Language : English<br>
Default : No<br>
Forced : No<br>
<br>
<b><span style="text-decoration: underline">Episode 20: Much Ado About Practically Nothing</span></b><br>
General<br>
Complete name : Bratz.S02E20.Much.Ado.About.Practically.Nothing.720p.KDLE.WEB-DL.AAC2.0.x264-Samuel.mkv<br>
Format : Matroska<br>
Format version : Version 4<br>
File size : 278 MiB<br>
Duration : 21 min 8 s<br>
Overall bit rate : 1 840 kb/s<br>
Frame rate : 24.000 FPS<br>
Encoded date : 2023-05-05 15:50:07 UTC<br>
Writing application : mkvmerge v76.0 ('Celebration') 64-bit<br>
Writing library : libebml v1.4.4 + libmatroska v1.7.1 / Lavf58.32.104<br>
<br>
Video<br>
ID : 1<br>
Format : AVC<br>
Format/Info : Advanced Video Codec<br>
Format profile : High@L4.1<br>
Format settings : CABAC / 2 Ref Frames<br>
Format settings, CABAC : Yes<br>
Format settings, Reference frames : 2 frames<br>
Codec ID : V_MPEG4/ISO/AVC<br>
Duration : 21 min 8 s<br>
Bit rate : 1 644 kb/s<br>
Width : 1 280 pixels<br>
Height : 720 pixels<br>
Display aspect ratio : 16:9<br>
Frame rate mode : Constant<br>
Frame rate : 24.000 FPS<br>
Color space : YUV<br>
Chroma subsampling : 4:2:0<br>
Bit depth : 8 bits<br>
Scan type : Progressive<br>
Bits/(Pixel*Frame) : 0.074<br>
Stream size : 248 MiB (89%)<br>
Writing library : x264 core 155 r2917 0a84d98<br>
Encoding settings : cabac=1 / ref=1 / deblock=1:0:0 / analyse=0x3:0x133 / me=umh / subme=10 / psy=0 / mixed_ref=0 / me_range=24 / chroma_me=1 / trellis=2 / 8x8dct=1 / cqm=0 / deadzone=21,11 / fast_pskip=1 / chroma_qp_offset=0 / threads=22 / lookahead_threads=1 / sliced_threads=0 / nr=0 / decimate=1 / interlaced=0 / bluray_compat=0 / constrained_intra=0 / bframes=3 / b_pyramid=0 / b_adapt=1 / b_bias=0 / direct=3 / weightb=1 / open_gop=0 / weightp=2 / keyint=24 / keyint_min=2 / scenecut=40 / intra_refresh=0 / rc_lookahead=25 / rc=crf / mbtree=1 / crf=1.0 / qcomp=0.60 / qpmin=0 / qpmax=69 / qpstep=4 / vbv_maxrate=1800 / vbv_bufsize=1900 / crf_max=0.0 / nal_hrd=none / filler=0 / ip_ratio=1.40 / aq=2:1.00<br>
Default : Yes<br>
Forced : No<br>
<br>
Audio<br>
ID : 2<br>
Format : AAC LC<br>
Format/Info : Advanced Audio Codec Low Complexity<br>
Codec ID : A_AAC-2<br>
Duration : 21 min 7 s<br>
Bit rate : 192 kb/s<br>
Channel(s) : 2 channels<br>
Channel layout : L R<br>
Sampling rate : 44.1 kHz<br>
Frame rate : 43.066 FPS (1024 SPF)<br>
Compression mode : Lossy<br>
Delay relative to video : -23 ms<br>
Stream size : 29.3 MiB (11%)<br>
Language : English<br>
Default : Yes<br>
Forced : No<br>
<br>
Text<br>
ID : 3<br>
Format : UTF-8<br>
Codec ID : S_TEXT/UTF8<br>
Codec ID/Info : UTF-8 Plain Text<br>
Duration : 20 min 35 s<br>
Bit rate : 92 b/s<br>
Frame rate : 0.343 FPS<br>
Count of elements : 424<br>
Stream size : 13.9 KiB (0%)<br>
Language : English<br>
Default : No<br>
Forced : No<br>
<br>
<b><span style="text-decoration: underline">Episode 21: Bratz Kidz Fairytales - Rapunzel</span></b><br>
General<br>
Complete name : Bratz.S02E21.Bratz.Kidz.Fairytales.Rapunzel.720p.KDLE.WEB-DL.AAC2.0.x264-Samuel.mkv<br>
Format : Matroska<br>
Format version : Version 4<br>
File size : 280 MiB<br>
Duration : 21 min 8 s<br>
Overall bit rate : 1 851 kb/s<br>
Frame rate : 24.000 FPS<br>
Encoded date : 2023-05-05 15:53:50 UTC<br>
Writing application : mkvmerge v76.0 ('Celebration') 64-bit<br>
Writing library : libebml v1.4.4 + libmatroska v1.7.1 / Lavf58.32.104<br>
<br>
Video<br>
ID : 1<br>
Format : AVC<br>
Format/Info : Advanced Video Codec<br>
Format profile : High@L4.1<br>
Format settings : CABAC / 2 Ref Frames<br>
Format settings, CABAC : Yes<br>
Format settings, Reference frames : 2 frames<br>
Codec ID : V_MPEG4/ISO/AVC<br>
Duration : 21 min 8 s<br>
Bit rate : 1 655 kb/s<br>
Width : 1 280 pixels<br>
Height : 720 pixels<br>
Display aspect ratio : 16:9<br>
Frame rate mode : Constant<br>
Frame rate : 24.000 FPS<br>
Color space : YUV<br>
Chroma subsampling : 4:2:0<br>
Bit depth : 8 bits<br>
Scan type : Progressive<br>
Bits/(Pixel*Frame) : 0.075<br>
Stream size : 250 MiB (89%)<br>
Writing library : x264 core 155 r2917 0a84d98<br>
Encoding settings : cabac=1 / ref=1 / deblock=1:0:0 / analyse=0x3:0x133 / me=umh / subme=10 / psy=0 / mixed_ref=0 / me_range=24 / chroma_me=1 / trellis=2 / 8x8dct=1 / cqm=0 / deadzone=21,11 / fast_pskip=1 / chroma_qp_offset=0 / threads=22 / lookahead_threads=1 / sliced_threads=0 / nr=0 / decimate=1 / interlaced=0 / bluray_compat=0 / constrained_intra=0 / bframes=3 / b_pyramid=0 / b_adapt=1 / b_bias=0 / direct=3 / weightb=1 / open_gop=0 / weightp=2 / keyint=24 / keyint_min=2 / scenecut=40 / intra_refresh=0 / rc_lookahead=25 / rc=crf / mbtree=1 / crf=1.0 / qcomp=0.60 / qpmin=0 / qpmax=69 / qpstep=4 / vbv_maxrate=1800 / vbv_bufsize=1900 / crf_max=0.0 / nal_hrd=none / filler=0 / ip_ratio=1.40 / aq=2:1.00<br>
Default : Yes<br>
Forced : No<br>
<br>
Audio<br>
ID : 2<br>
Format : AAC LC<br>
Format/Info : Advanced Audio Codec Low Complexity<br>
Codec ID : A_AAC-2<br>
Duration : 21 min 7 s<br>
Bit rate : 192 kb/s<br>
Channel(s) : 2 channels<br>
Channel layout : L R<br>
Sampling rate : 44.1 kHz<br>
Frame rate : 43.066 FPS (1024 SPF)<br>
Compression mode : Lossy<br>
Delay relative to video : -23 ms<br>
Stream size : 29.2 MiB (10%)<br>
Language : English<br>
Default : Yes<br>
Forced : No<br>
<br>
Text<br>
ID : 3<br>
Format : UTF-8<br>
Codec ID : S_TEXT/UTF8<br>
Codec ID/Info : UTF-8 Plain Text<br>
Duration : 20 min 46 s<br>
Bit rate : 78 b/s<br>
Frame rate : 0.334 FPS<br>
Count of elements : 416<br>
Stream size : 11.9 KiB (0%)<br>
Language : English<br>
Default : No<br>
Forced : No<br>
<br>
<b><span style="text-decoration: underline">Episode 22: Bratz Kidz Fairytales - Snow White</span></b><br>
General<br>
Complete name : Bratz.S02E22.Bratz.Kidz.Fairytales.Snow.White.720p.KDLE.WEB-DL.AAC2.0.x264-Samuel.mkv<br>
Format : Matroska<br>
Format version : Version 4<br>
File size : 268 MiB<br>
Duration : 21 min 4 s<br>
Overall bit rate : 1 778 kb/s<br>
Frame rate : 24.000 FPS<br>
Encoded date : 2023-05-05 17:06:04 UTC<br>
Writing application : mkvmerge v76.0 ('Celebration') 64-bit<br>
Writing library : libebml v1.4.4 + libmatroska v1.7.1 / Lavf58.32.104<br>
<br>
Video<br>
ID : 1<br>
Format : AVC<br>
Format/Info : Advanced Video Codec<br>
Format profile : High@L4.1<br>
Format settings : CABAC / 2 Ref Frames<br>
Format settings, CABAC : Yes<br>
Format settings, Reference frames : 2 frames<br>
Codec ID : V_MPEG4/ISO/AVC<br>
Duration : 21 min 4 s<br>
Bit rate : 1 582 kb/s<br>
Width : 1 280 pixels<br>
Height : 720 pixels<br>
Display aspect ratio : 16:9<br>
Frame rate mode : Constant<br>
Frame rate : 24.000 FPS<br>
Color space : YUV<br>
Chroma subsampling : 4:2:0<br>
Bit depth : 8 bits<br>
Scan type : Progressive<br>
Bits/(Pixel*Frame) : 0.072<br>
Stream size : 239 MiB (89%)<br>
Writing library : x264 core 155 r2917 0a84d98<br>
Encoding settings : cabac=1 / ref=1 / deblock=1:0:0 / analyse=0x3:0x133 / me=umh / subme=10 / psy=0 / mixed_ref=0 / me_range=24 / chroma_me=1 / trellis=2 / 8x8dct=1 / cqm=0 / deadzone=21,11 / fast_pskip=1 / chroma_qp_offset=0 / threads=22 / lookahead_threads=1 / sliced_threads=0 / nr=0 / decimate=1 / interlaced=0 / bluray_compat=0 / constrained_intra=0 / bframes=3 / b_pyramid=0 / b_adapt=1 / b_bias=0 / direct=3 / weightb=1 / open_gop=0 / weightp=2 / keyint=24 / keyint_min=2 / scenecut=40 / intra_refresh=0 / rc_lookahead=25 / rc=crf / mbtree=1 / crf=1.0 / qcomp=0.60 / qpmin=0 / qpmax=69 / qpstep=4 / vbv_maxrate=1800 / vbv_bufsize=1900 / crf_max=0.0 / nal_hrd=none / filler=0 / ip_ratio=1.40 / aq=2:1.00<br>
Default : Yes<br>
Forced : No<br>
<br>
Audio<br>
ID : 2<br>
Format : AAC LC<br>
Format/Info : Advanced Audio Codec Low Complexity<br>
Codec ID : A_AAC-2<br>
Duration : 21 min 4 s<br>
Bit rate : 192 kb/s<br>
Channel(s) : 2 channels<br>
Channel layout : L R<br>
Sampling rate : 44.1 kHz<br>
Frame rate : 43.066 FPS (1024 SPF)<br>
Compression mode : Lossy<br>
Delay relative to video : -23 ms<br>
Stream size : 29.2 MiB (11%)<br>
Language : English<br>
Default : Yes<br>
Forced : No<br>
<br>
Text<br>
ID : 3<br>
Format : UTF-8<br>
Codec ID : S_TEXT/UTF8<br>
Codec ID/Info : UTF-8 Plain Text<br>
Duration : 20 min 48 s<br>
Bit rate : 80 b/s<br>
Frame rate : 0.397 FPS<br>
Count of elements : 496<br>
Stream size : 12.3 KiB (0%)<br>
Language : English<br>
Default : No<br>
Forced : No<br>
<br>
<b><span style="text-decoration: underline">Episode 23: Bratz Kidz Fairytales - Cinderella</span></b><br>
General<br>
Complete name : Bratz.S02E23.Bratz.Kidz.Fairytales.Cinderella.720p.KDLE.WEB-DL.AAC2.0.x264-Samuel.mkv<br>
Format : Matroska<br>
Format version : Version 4<br>
File size : 273 MiB<br>
Duration : 21 min 7 s<br>
Overall bit rate : 1 810 kb/s<br>
Frame rate : 24.000 FPS<br>
Encoded date : 2023-05-05 17:12:40 UTC<br>
Writing application : mkvmerge v76.0 ('Celebration') 64-bit<br>
Writing library : libebml v1.4.4 + libmatroska v1.7.1 / Lavf58.32.104<br>
<br>
Video<br>
ID : 1<br>
Format : AVC<br>
Format/Info : Advanced Video Codec<br>
Format profile : High@L4.1<br>
Format settings : CABAC / 2 Ref Frames<br>
Format settings, CABAC : Yes<br>
Format settings, Reference frames : 2 frames<br>
Codec ID : V_MPEG4/ISO/AVC<br>
Duration : 21 min 7 s<br>
Bit rate : 1 614 kb/s<br>
Width : 1 280 pixels<br>
Height : 720 pixels<br>
Display aspect ratio : 16:9<br>
Frame rate mode : Constant<br>
Frame rate : 24.000 FPS<br>
Color space : YUV<br>
Chroma subsampling : 4:2:0<br>
Bit depth : 8 bits<br>
Scan type : Progressive<br>
Bits/(Pixel*Frame) : 0.073<br>
Stream size : 244 MiB (89%)<br>
Writing library : x264 core 155 r2917 0a84d98<br>
Encoding settings : cabac=1 / ref=1 / deblock=1:0:0 / analyse=0x3:0x133 / me=umh / subme=10 / psy=0 / mixed_ref=0 / me_range=24 / chroma_me=1 / trellis=2 / 8x8dct=1 / cqm=0 / deadzone=21,11 / fast_pskip=1 / chroma_qp_offset=0 / threads=22 / lookahead_threads=1 / sliced_threads=0 / nr=0 / decimate=1 / interlaced=0 / bluray_compat=0 / constrained_intra=0 / bframes=3 / b_pyramid=0 / b_adapt=1 / b_bias=0 / direct=3 / weightb=1 / open_gop=0 / weightp=2 / keyint=24 / keyint_min=2 / scenecut=40 / intra_refresh=0 / rc_lookahead=25 / rc=crf / mbtree=1 / crf=1.0 / qcomp=0.60 / qpmin=0 / qpmax=69 / qpstep=4 / vbv_maxrate=1800 / vbv_bufsize=1900 / crf_max=0.0 / nal_hrd=none / filler=0 / ip_ratio=1.40 / aq=2:1.00<br>
Default : Yes<br>
Forced : No<br>
<br>
Audio<br>
ID : 2<br>
Format : AAC LC<br>
Format/Info : Advanced Audio Codec Low Complexity<br>
Codec ID : A_AAC-2<br>
Duration : 21 min 7 s<br>
Bit rate : 192 kb/s<br>
Channel(s) : 2 channels<br>
Channel layout : L R<br>
Sampling rate : 44.1 kHz<br>
Frame rate : 43.066 FPS (1024 SPF)<br>
Compression mode : Lossy<br>
Delay relative to video : -23 ms<br>
Stream size : 29.2 MiB (11%)<br>
Language : English<br>
Default : Yes<br>
Forced : No<br>
<br>
Text<br>
ID : 3<br>
Format : UTF-8<br>
Codec ID : S_TEXT/UTF8<br>
Codec ID/Info : UTF-8 Plain Text<br>
Duration : 20 min 46 s<br>
Bit rate : 85 b/s<br>
Frame rate : 0.441 FPS<br>
Count of elements : 550<br>
Stream size : 13.0 KiB (0%)<br>
Language : English<br>
Default : No<br>
Forced : No<br>
<br>
<b><span style="text-decoration: underline">Episode 24: Gran's Christmas</span></b><br>
General<br>
Complete name : Bratz.S02E24.Grans.Christmas.720p.KDLE.WEB-DL.AAC2.0.x264-Samuel.mkv<br>
Format : Matroska<br>
Format version : Version 4<br>
File size : 283 MiB<br>
Duration : 21 min 7 s<br>
Overall bit rate : 1 871 kb/s<br>
Frame rate : 24.000 FPS<br>
Encoded date : 2023-05-05 17:18:00 UTC<br>
Writing application : mkvmerge v76.0 ('Celebration') 64-bit<br>
Writing library : libebml v1.4.4 + libmatroska v1.7.1 / Lavf58.32.104<br>
<br>
Video<br>
ID : 1<br>
Format : AVC<br>
Format/Info : Advanced Video Codec<br>
Format profile : High@L4.1<br>
Format settings : CABAC / 2 Ref Frames<br>
Format settings, CABAC : Yes<br>
Format settings, Reference frames : 2 frames<br>
Codec ID : V_MPEG4/ISO/AVC<br>
Duration : 21 min 7 s<br>
Bit rate : 1 675 kb/s<br>
Width : 1 280 pixels<br>
Height : 720 pixels<br>
Display aspect ratio : 16:9<br>
Frame rate mode : Constant<br>
Frame rate : 24.000 FPS<br>
Color space : YUV<br>
Chroma subsampling : 4:2:0<br>
Bit depth : 8 bits<br>
Scan type : Progressive<br>
Bits/(Pixel*Frame) : 0.076<br>
Stream size : 253 MiB (90%)<br>
Writing library : x264 core 155 r2917 0a84d98<br>
Encoding settings : cabac=1 / ref=1 / deblock=1:0:0 / analyse=0x3:0x133 / me=umh / subme=10 / psy=0 / mixed_ref=0 / me_range=24 / chroma_me=1 / trellis=2 / 8x8dct=1 / cqm=0 / deadzone=21,11 / fast_pskip=1 / chroma_qp_offset=0 / threads=22 / lookahead_threads=1 / sliced_threads=0 / nr=0 / decimate=1 / interlaced=0 / bluray_compat=0 / constrained_intra=0 / bframes=3 / b_pyramid=0 / b_adapt=1 / b_bias=0 / direct=3 / weightb=1 / open_gop=0 / weightp=2 / keyint=24 / keyint_min=2 / scenecut=40 / intra_refresh=0 / rc_lookahead=25 / rc=crf / mbtree=1 / crf=1.0 / qcomp=0.60 / qpmin=0 / qpmax=69 / qpstep=4 / vbv_maxrate=1800 / vbv_bufsize=1900 / crf_max=0.0 / nal_hrd=none / filler=0 / ip_ratio=1.40 / aq=2:1.00<br>
Default : Yes<br>
Forced : No<br>
<br>
Audio<br>
ID : 2<br>
Format : AAC LC<br>
Format/Info : Advanced Audio Codec Low Complexity<br>
Codec ID : A_AAC-2<br>
Duration : 21 min 7 s<br>
Bit rate : 192 kb/s<br>
Channel(s) : 2 channels<br>
Channel layout : L R<br>
Sampling rate : 44.1 kHz<br>
Frame rate : 43.066 FPS (1024 SPF)<br>
Compression mode : Lossy<br>
Delay relative to video : -23 ms<br>
Stream size : 29.3 MiB (10%)<br>
Language : English<br>
Default : Yes<br>
Forced : No<br>
<br>
Text<br>
ID : 3<br>
Format : UTF-8<br>
Codec ID : S_TEXT/UTF8<br>
Codec ID/Info : UTF-8 Plain Text<br>
Duration : 20 min 46 s<br>
Bit rate : 67 b/s<br>
Frame rate : 0.291 FPS<br>
Count of elements : 363<br>
Stream size : 10.3 KiB (0%)<br>
Language : English<br>
Default : No<br>
Forced : No<br>
<br>
<b><span style="text-decoration: underline">Episode 25: Winter Road Trip</span></b><br>
General<br>
Complete name : Bratz.S02E25.Winter.Road.Trip.720p.KDLE.WEB-DL.AAC2.0.x264-Samuel.mkv<br>
Format : Matroska<br>
Format version : Version 4<br>
File size : 274 MiB<br>
Duration : 21 min 7 s<br>
Overall bit rate : 1 815 kb/s<br>
Frame rate : 24.000 FPS<br>
Encoded date : 2023-05-05 17:34:56 UTC<br>
Writing application : mkvmerge v76.0 ('Celebration') 64-bit<br>
Writing library : libebml v1.4.4 + libmatroska v1.7.1 / Lavf58.32.104<br>
<br>
Video<br>
ID : 1<br>
Format : AVC<br>
Format/Info : Advanced Video Codec<br>
Format profile : High@L4.1<br>
Format settings : CABAC / 2 Ref Frames<br>
Format settings, CABAC : Yes<br>
Format settings, Reference frames : 2 frames<br>
Codec ID : V_MPEG4/ISO/AVC<br>
Duration : 21 min 7 s<br>
Bit rate : 1 619 kb/s<br>
Width : 1 280 pixels<br>
Height : 720 pixels<br>
Display aspect ratio : 16:9<br>
Frame rate mode : Constant<br>
Frame rate : 24.000 FPS<br>
Color space : YUV<br>
Chroma subsampling : 4:2:0<br>
Bit depth : 8 bits<br>
Scan type : Progressive<br>
Bits/(Pixel*Frame) : 0.073<br>
Stream size : 244 MiB (89%)<br>
Writing library : x264 core 155 r2917 0a84d98<br>
Encoding settings : cabac=1 / ref=1 / deblock=1:0:0 / analyse=0x3:0x133 / me=umh / subme=10 / psy=0 / mixed_ref=0 / me_range=24 / chroma_me=1 / trellis=2 / 8x8dct=1 / cqm=0 / deadzone=21,11 / fast_pskip=1 / chroma_qp_offset=0 / threads=22 / lookahead_threads=1 / sliced_threads=0 / nr=0 / decimate=1 / interlaced=0 / bluray_compat=0 / constrained_intra=0 / bframes=3 / b_pyramid=0 / b_adapt=1 / b_bias=0 / direct=3 / weightb=1 / open_gop=0 / weightp=2 / keyint=24 / keyint_min=2 / scenecut=40 / intra_refresh=0 / rc_lookahead=25 / rc=crf / mbtree=1 / crf=1.0 / qcomp=0.60 / qpmin=0 / qpmax=69 / qpstep=4 / vbv_maxrate=1800 / vbv_bufsize=1900 / crf_max=0.0 / nal_hrd=none / filler=0 / ip_ratio=1.40 / aq=2:1.00<br>
Default : Yes<br>
Forced : No<br>
<br>
Audio<br>
ID : 2<br>
Format : AAC LC<br>
Format/Info : Advanced Audio Codec Low Complexity<br>
Codec ID : A_AAC-2<br>
Duration : 21 min 7 s<br>
Bit rate : 192 kb/s<br>
Channel(s) : 2 channels<br>
Channel layout : L R<br>
Sampling rate : 44.1 kHz<br>
Frame rate : 43.066 FPS (1024 SPF)<br>
Compression mode : Lossy<br>
Delay relative to video : -23 ms<br>
Stream size : 29.2 MiB (11%)<br>
Language : English<br>
Default : Yes<br>
Forced : No<br>
<br>
Text<br>
ID : 3<br>
Format : UTF-8<br>
Codec ID : S_TEXT/UTF8<br>
Codec ID/Info : UTF-8 Plain Text<br>
Duration : 20 min 48 s<br>
Bit rate : 65 b/s<br>
Frame rate : 0.307 FPS<br>
Count of elements : 383<br>
Stream size : 9.96 KiB (0%)<br>
Language : English<br>
Default : No<br>
Forced : No<br>
<br>
<b><span style="text-decoration: underline">Episode 26: North Pole</span></b><br>
General<br>
Complete name : Bratz.S02E26.North.Pole.720p.KDLE.WEB-DL.AAC2.0.x264-Samuel.mkv<br>
Format : Matroska<br>
Format version : Version 4<br>
File size : 275 MiB<br>
Duration : 21 min 7 s<br>
Overall bit rate : 1 820 kb/s<br>
Frame rate : 24.000 FPS<br>
Encoded date : 2023-05-05 17:39:13 UTC<br>
Writing application : mkvmerge v76.0 ('Celebration') 64-bit<br>
Writing library : libebml v1.4.4 + libmatroska v1.7.1 / Lavf58.32.104<br>
<br>
Video<br>
ID : 1<br>
Format : AVC<br>
Format/Info : Advanced Video Codec<br>
Format profile : High@L4.1<br>
Format settings : CABAC / 2 Ref Frames<br>
Format settings, CABAC : Yes<br>
Format settings, Reference frames : 2 frames<br>
Codec ID : V_MPEG4/ISO/AVC<br>
Duration : 21 min 7 s<br>
Bit rate : 1 624 kb/s<br>
Width : 1 280 pixels<br>
Height : 720 pixels<br>
Display aspect ratio : 16:9<br>
Frame rate mode : Constant<br>
Frame rate : 24.000 FPS<br>
Color space : YUV<br>
Chroma subsampling : 4:2:0<br>
Bit depth : 8 bits<br>
Scan type : Progressive<br>
Bits/(Pixel*Frame) : 0.073<br>
Stream size : 245 MiB (89%)<br>
Writing library : x264 core 155 r2917 0a84d98<br>
Encoding settings : cabac=1 / ref=1 / deblock=1:0:0 / analyse=0x3:0x133 / me=umh / subme=10 / psy=0 / mixed_ref=0 / me_range=24 / chroma_me=1 / trellis=2 / 8x8dct=1 / cqm=0 / deadzone=21,11 / fast_pskip=1 / chroma_qp_offset=0 / threads=22 / lookahead_threads=1 / sliced_threads=0 / nr=0 / decimate=1 / interlaced=0 / bluray_compat=0 / constrained_intra=0 / bframes=3 / b_pyramid=0 / b_adapt=1 / b_bias=0 / direct=3 / weightb=1 / open_gop=0 / weightp=2 / keyint=24 / keyint_min=2 / scenecut=40 / intra_refresh=0 / rc_lookahead=25 / rc=crf / mbtree=1 / crf=1.0 / qcomp=0.60 / qpmin=0 / qpmax=69 / qpstep=4 / vbv_maxrate=1800 / vbv_bufsize=1900 / crf_max=0.0 / nal_hrd=none / filler=0 / ip_ratio=1.40 / aq=2:1.00<br>
Default : Yes<br>
Forced : No<br>
<br>
Audio<br>
ID : 2<br>
Format : AAC LC<br>
Format/Info : Advanced Audio Codec Low Complexity<br>
Codec ID : A_AAC-2<br>
Duration : 21 min 7 s<br>
Bit rate : 192 kb/s<br>
Channel(s) : 2 channels<br>
Channel layout : L R<br>
Sampling rate : 44.1 kHz<br>
Frame rate : 43.066 FPS (1024 SPF)<br>
Compression mode : Lossy<br>
Delay relative to video : -23 ms<br>
Stream size : 29.3 MiB (11%)<br>
Language : English<br>
Default : Yes<br>
Forced : No<br>
<br>
Text<br>
ID : 3<br>
Format : UTF-8<br>
Codec ID : S_TEXT/UTF8<br>
Codec ID/Info : UTF-8 Plain Text<br>
Duration : 20 min 48 s<br>
Bit rate : 69 b/s<br>
Frame rate : 0.287 FPS<br>
Count of elements : 358<br>
Stream size : 10.6 KiB (0%)<br>
Language : English<br>
Default : No<br>
Forced : No</div>
</div><br>
<b>Screenshots</b><br>
<img src="https://i.imgur.com/tHIqcWb.png" class="bbCodeImage LbImage" alt="[​IMG]" data-url="https://i.imgur.com/tHIqcWb.png" style=""><br>
<a href="https://imgur.com/a/idhQMSQ" target="_blank" class="externalLink" rel="nofollow"><b>More Episodes Screenshots</b></a><br>
<br>
<b>Download</b><br>
<div class="bbCodeBlock bbCodeVfcHH HiddenContent">
<div class="attribution type">Hidden Content:</div>
<blockquote>You must reply before you can see the hidden data contained here.</blockquote>
</div></div>
<div class="messageTextEndMarker">&nbsp;</div>
</blockquote>
</article>]]></description>
                <author><![CDATA[Samuel]]></author>
                </item>

                </channel></rss>